<?xml version="1.0" standalone="no"?>
<!DOCTYPE svg PUBLIC "-//W3C//DTD SVG 20010904//EN"
 "http://www.w3.org/TR/2001/REC-SVG-20010904/DTD/svg10.dtd">
<svg version="1.0" xmlns="http://www.w3.org/2000/svg"
 width="300.000000pt" height="300.000000pt" viewBox="0 0 300.000000 300.000000"
 preserveAspectRatio="xMidYMid meet">
<metadata>
Created by potrace 1.14, written by Peter Selinger 2001-2017
</metadata>
<g transform="translate(0.000000,300.000000) scale(0.100000,-0.100000)"
fill="#000000" stroke="none">
<path d="M1260 2806 c0 -2 8 -10 18 -17 15 -13 16 -12 3 4 -13 16 -21 21 -21
13z"/>
<path d="M1430 2781 c0 -6 4 -13 10 -16 6 -3 7 1 4 9 -7 18 -14 21 -14 7z"/>
<path d="M1555 2780 c3 -5 8 -10 11 -10 2 0 4 5 4 10 0 6 -5 10 -11 10 -5 0
-7 -4 -4 -10z"/>
<path d="M1256 2738 c3 -5 10 -6 15 -3 13 9 11 12 -6 12 -8 0 -12 -4 -9 -9z"/>
<path d="M1140 2720 c-8 -5 -10 -10 -5 -10 6 0 17 5 25 10 8 5 11 10 5 10 -5
0 -17 -5 -25 -10z"/>
<path d="M1196 2721 c-3 -5 2 -15 12 -22 15 -12 16 -12 5 2 -7 9 -10 19 -6 22
3 4 4 7 0 7 -3 0 -8 -4 -11 -9z"/>
<path d="M1323 2719 c9 -6 14 -15 11 -21 -4 -7 -2 -8 5 -4 14 9 -3 36 -23 36
-6 0 -3 -5 7 -11z"/>
<path d="M1560 2720 c-12 -7 -10 -9 7 -7 12 0 19 5 17 9 -6 10 -6 10 -24 -2z"/>
<path d="M1755 2720 c-3 -5 -1 -10 4 -10 6 0 11 5 11 10 0 6 -2 10 -4 10 -3 0
-8 -4 -11 -10z"/>
<path d="M1055 2711 c-3 -5 -2 -12 3 -15 5 -3 9 1 9 9 0 17 -3 19 -12 6z"/>
<path d="M1285 2699 c-4 -6 -5 -12 -2 -15 2 -3 7 2 10 11 7 17 1 20 -8 4z"/>
<path d="M1357 2696 c-3 -8 -3 -17 1 -20 3 -4 7 -15 9 -25 2 -17 -3 -19 -41
-16 -24 1 -48 5 -54 9 -6 3 -12 1 -14 -6 -3 -7 -7 -5 -11 6 -4 9 -3 15 2 12 5
-3 12 1 15 10 8 21 8 24 -5 24 -5 0 -7 -4 -4 -10 3 -5 2 -10 -4 -10 -5 0 -11
6 -14 13 -2 6 -4 -1 -4 -16 0 -16 -6 -34 -12 -40 -9 -9 -12 -9 -9 0 2 6 -1 12
-7 13 -5 1 -19 7 -30 13 -11 6 -31 12 -45 13 -14 1 -19 0 -12 -3 6 -3 10 -8 8
-12 -3 -4 4 -7 14 -7 10 0 16 5 13 10 -3 5 -1 6 5 2 16 -10 15 -29 0 -23 -7 2
-21 0 -32 -5 -13 -7 -16 -7 -12 1 4 6 0 14 -8 17 -9 3 -13 11 -9 17 3 6 1 7
-6 3 -8 -5 -9 -12 -2 -20 7 -8 2 -15 -19 -24 -24 -11 -49 -47 -41 -61 2 -2 -3
-7 -9 -11 -8 -5 -7 -9 3 -13 11 -4 15 0 12 14 -2 10 1 19 6 19 6 0 8 4 4 9 -3
5 -2 12 3 15 9 5 9 -50 0 -59 -3 -3 -4 -19 -2 -35 2 -17 -1 -30 -6 -30 -6 0
-9 3 -8 8 8 29 -44 83 -58 60 -4 -6 -3 -8 4 -4 6 3 20 -7 31 -23 14 -19 18
-32 11 -36 -8 -5 -7 -12 2 -23 11 -13 10 -15 -4 -9 -10 3 -20 1 -24 -6 -4 -7
-4 -9 1 -5 4 4 21 0 38 -9 29 -15 30 -16 12 -29 -10 -8 -21 -14 -24 -14 -3 0
-14 -12 -24 -25 -14 -20 -15 -24 -2 -19 8 3 15 11 15 16 0 6 6 5 15 -2 8 -6
20 -9 27 -5 7 4 4 -1 -6 -9 -18 -15 -15 -21 9 -16 5 1 1 -9 -10 -21 -20 -22
-20 -22 0 -16 20 7 20 7 1 -8 -18 -14 -15 -20 7 -16 5 1 6 -3 2 -9 -3 -6 -11
-7 -17 -4 -6 4 -8 1 -6 -7 3 -8 11 -13 18 -11 11 2 11 0 2 -11 -7 -8 -9 -22
-5 -32 5 -16 2 -17 -28 -12 -19 3 -28 3 -21 0 10 -4 10 -8 0 -21 -11 -13 -11
-14 2 -6 19 11 60 13 53 1 -3 -4 -11 -6 -18 -3 -8 3 -19 -2 -25 -10 -7 -8 -9
-14 -4 -14 5 0 2 -5 -6 -11 -12 -8 -10 -9 7 -4 12 3 24 1 28 -5 3 -6 11 -7 17
-4 7 4 8 2 4 -5 -4 -6 -12 -8 -18 -5 -6 4 -8 1 -6 -7 3 -8 12 -13 19 -11 9 2
8 -3 -4 -16 -16 -17 -16 -20 -2 -32 14 -12 14 -15 -2 -33 -17 -20 -17 -20 2
-14 18 7 19 6 3 -6 -10 -8 -14 -18 -10 -22 4 -4 1 -6 -7 -3 -8 2 -17 10 -19
18 -3 7 0 10 5 7 5 -3 10 0 10 8 0 8 -7 17 -16 20 -15 6 -15 7 0 18 9 7 17 16
18 21 3 10 -18 26 -34 26 -5 0 -3 -5 5 -10 12 -7 13 -13 3 -28 -9 -15 -9 -22
0 -31 9 -9 8 -14 -3 -21 -8 -5 -17 -7 -21 -4 -4 2 -10 0 -13 -5 -3 -4 4 -8 16
-7 12 0 23 -5 26 -13 3 -8 0 -11 -6 -7 -11 7 -10 -8 3 -38 6 -13 3 -23 -11
-34 -16 -12 -16 -14 -2 -9 20 7 35 -9 16 -16 -10 -4 -10 -6 0 -6 7 -1 11 -5 8
-9 -2 -4 -1 -14 3 -21 6 -10 10 -9 14 4 4 9 3 14 -1 11 -5 -3 -8 15 -7 39 1
29 -4 46 -13 50 -18 7 -5 25 19 25 10 0 19 5 19 12 0 6 2 9 5 6 12 -12 -7 -37
-23 -30 -15 5 -15 4 -3 -11 7 -9 17 -14 22 -12 12 8 2 -35 -13 -53 -11 -13
-10 -15 5 -9 16 6 16 5 1 -25 -15 -29 -15 -31 2 -24 18 6 17 5 0 -9 -18 -14
-15 -20 9 -15 5 1 1 -9 -10 -21 -20 -22 -20 -22 0 -16 20 7 20 7 1 -8 -18 -14
-15 -20 9 -15 5 1 2 -7 -8 -18 -22 -24 -22 -38 1 -21 14 11 15 11 5 -1 -15
-17 -17 -34 -3 -25 5 3 7 0 4 -9 -7 -19 -31 -28 -31 -10 0 7 4 11 9 8 4 -3 5
2 1 11 -4 13 -8 14 -14 4 -4 -7 -6 -16 -3 -20 2 -4 -2 -9 -8 -12 -7 -2 -1 -8
15 -12 30 -8 33 -15 15 -34 -11 -12 -9 -13 7 -7 16 5 15 2 -5 -14 l-25 -19 24
4 c23 4 23 4 5 -17 -19 -21 -19 -21 1 -15 20 7 20 7 1 -8 -16 -12 -17 -18 -8
-27 9 -9 12 -9 12 2 0 7 2 11 5 8 8 -8 -6 -38 -17 -38 -5 0 -6 5 -2 12 4 7 3
8 -5 4 -9 -6 -9 -11 0 -22 6 -7 16 -11 23 -7 6 4 5 -1 -3 -10 -13 -16 -36 -14
-26 3 3 4 -2 11 -11 14 -21 8 -24 8 -24 -5 0 -5 5 -7 10 -4 16 10 12 -7 -7
-27 -16 -18 -16 -18 0 -12 9 3 17 11 17 16 0 6 6 5 15 -2 8 -6 20 -9 27 -5 7
4 5 0 -4 -8 -25 -20 -25 -45 0 -26 14 11 15 11 5 -1 -7 -8 -13 -18 -13 -23 0
-4 6 -5 13 -1 8 5 8 2 -2 -9 -7 -9 -19 -17 -25 -17 -6 0 -4 5 4 11 13 9 12 10
-2 5 -10 -3 -20 -1 -23 4 -4 6 -11 10 -16 10 -6 0 2 -11 17 -23 l27 -24 -28
-37 c-18 -24 -22 -34 -11 -30 9 3 16 13 16 22 0 13 2 13 13 -3 9 -11 19 -15
27 -10 9 6 11 4 6 -4 -5 -7 -14 -10 -21 -7 -7 2 -21 -5 -32 -17 l-18 -22 23
19 c13 12 22 14 22 7 0 -7 5 -9 10 -6 6 3 10 1 10 -5 0 -7 -6 -10 -14 -7 -24
10 -38 -15 -19 -35 18 -20 5 -25 -17 -6 -12 11 -12 10 -1 -4 14 -19 2 -25 -15
-8 -6 6 -10 3 -10 -9 0 -16 4 -17 24 -10 31 12 38 11 24 -3 -8 -8 -8 -17 -1
-30 7 -13 7 -23 0 -32 -6 -7 -8 -16 -4 -19 3 -4 -5 -7 -18 -8 -22 -1 -20 -2
20 -15 11 -3 11 -7 1 -19 -10 -12 -16 -13 -28 -3 -9 7 -4 -3 11 -24 18 -22 24
-39 18 -43 -14 -8 -14 -25 0 -25 5 0 7 4 4 10 -3 6 1 7 9 4 9 -3 16 -1 16 6 0
6 -4 9 -9 6 -5 -4 -8 5 -7 19 2 13 0 23 -4 20 -4 -2 -7 2 -7 10 0 8 5 11 10 8
6 -3 7 -2 4 4 -3 5 0 10 7 10 14 0 16 -21 3 -33 -3 -4 -1 -16 5 -27 8 -16 7
-23 -7 -33 -9 -7 -14 -18 -10 -24 6 -9 10 -9 16 1 6 10 9 10 9 2 0 -6 -5 -15
-10 -18 -6 -4 -8 -16 -4 -27 5 -17 3 -19 -15 -13 -15 5 -21 2 -21 -10 0 -12 6
-15 19 -10 24 7 35 -9 22 -33 -5 -10 -6 -24 -1 -32 5 -8 5 -21 -1 -31 -6 -12
-5 -20 1 -24 8 -5 8 -11 0 -20 -7 -9 -8 -15 -1 -20 7 -4 7 -12 -1 -25 -12 -18
-13 -18 -39 1 -18 12 -30 16 -34 9 -4 -6 -3 -10 2 -9 14 4 43 -13 38 -21 -3
-5 -1 -11 5 -15 6 -4 8 -11 5 -16 -3 -5 1 -6 10 -3 14 6 14 7 0 18 -15 10 -14
12 3 12 20 0 23 -11 9 -32 -3 -6 -3 -14 0 -18 11 -10 14 -46 4 -46 -5 0 -9 -6
-8 -13 1 -32 -4 -48 -13 -42 -6 3 -7 -1 -4 -9 3 -9 10 -16 16 -16 5 0 7 4 4 8
-2 4 -1 13 3 20 4 6 7 -13 7 -42 -1 -43 -4 -53 -16 -49 -13 4 -13 4 0 -6 8 -6
25 -11 38 -11 13 0 33 -5 44 -11 16 -8 19 -8 13 1 -5 8 -3 11 6 8 8 -3 13 -12
11 -19 -2 -8 0 -10 5 -6 4 5 8 14 8 20 1 7 7 11 15 9 10 -2 11 0 3 10 -13 17
-13 49 1 46 6 -2 12 1 13 5 1 5 9 14 19 21 12 10 14 15 5 20 -9 6 -9 11 0 22
6 8 9 17 5 21 -3 3 -6 1 -6 -6 0 -7 -4 -10 -10 -6 -5 3 -7 12 -3 20 3 8 -1 15
-8 15 -7 0 -9 -3 -6 -7 4 -3 1 -13 -6 -21 -10 -13 -9 -14 2 -7 10 5 12 4 7 -3
-4 -7 -11 -12 -17 -12 -10 0 -8 28 4 47 4 6 4 14 -1 17 -10 6 -8 44 3 70 5 12
3 21 -6 27 -11 6 -11 9 -1 9 10 0 10 5 1 21 -8 15 -8 19 0 15 14 -9 14 7 1 20
-8 8 -6 15 4 23 17 15 41 3 41 -19 0 -8 8 -14 18 -14 18 2 23 -11 9 -20 -14
-8 -54 25 -48 40 6 14 -6 19 -17 7 -4 -3 0 -15 10 -25 9 -11 11 -18 5 -18 -7
0 -12 -4 -12 -9 0 -5 12 -8 26 -5 17 3 23 1 19 -6 -4 -6 -12 -9 -19 -7 -7 3
-13 -4 -13 -14 -1 -10 3 -19 8 -19 6 0 7 4 4 10 -3 5 -2 10 3 10 5 0 17 -15
26 -32 8 -18 16 -26 15 -18 0 8 -6 24 -14 34 -8 10 -12 23 -8 29 3 5 9 3 15
-4 7 -11 8 -9 6 5 -2 10 2 21 9 23 11 4 11 -1 3 -42 -4 -19 0 -35 9 -35 4 0 7
25 6 54 -1 37 2 53 9 49 6 -4 5 0 -1 9 -7 8 -10 18 -6 21 3 4 1 7 -6 7 -7 0
-11 -7 -8 -15 4 -8 2 -17 -2 -20 -12 -7 -22 21 -15 39 3 8 13 12 22 9 13 -4
14 -3 4 5 -11 7 -11 10 2 15 9 4 16 13 16 21 0 8 4 18 10 21 7 4 7 -3 0 -19
-7 -19 -6 -26 3 -26 6 0 4 -5 -6 -11 -10 -6 -14 -15 -10 -22 12 -20 14 -47 2
-47 -5 0 -7 -5 -4 -10 4 -6 10 -8 14 -6 4 3 8 -1 8 -9 0 -8 -3 -14 -6 -13 -20
2 -22 -4 -7 -15 15 -11 16 -16 5 -28 -20 -21 -23 -43 -5 -36 10 4 13 1 10 -8
-3 -8 -12 -11 -19 -9 -8 3 -22 1 -32 -6 -16 -9 -15 -10 6 -4 l24 6 -21 -27
c-22 -28 -21 -48 2 -39 7 3 13 -2 13 -11 0 -10 -6 -14 -16 -10 -13 4 -12 2 2
-9 19 -15 23 -27 6 -24 -6 2 -13 -3 -14 -10 -2 -7 -1 -8 2 -2 3 8 11 6 22 -4
15 -14 18 -14 18 -1 0 8 -5 11 -11 8 -6 -3 -5 0 2 8 13 14 17 33 4 25 -4 -2
-8 6 -8 20 0 14 6 24 14 24 11 0 12 -3 3 -14 -8 -9 -8 -16 -2 -20 10 -7 8 -56
-4 -91 -6 -16 -5 -17 4 -5 7 10 11 11 11 3 0 -7 7 -13 16 -13 8 0 13 -4 9 -9
-3 -5 0 -13 6 -17 7 -4 9 -3 6 3 -9 14 13 22 45 19 22 -3 24 1 23 31 0 19 2
36 6 39 3 2 5 17 3 34 -2 16 1 30 7 30 6 0 7 -6 3 -12 -5 -9 -2 -8 10 1 12 10
14 17 6 25 -14 14 -13 29 3 20 9 -6 9 -4 -1 8 -16 21 -12 40 13 55 18 10 18
11 -7 10 -19 -2 -25 -7 -23 -20 2 -9 0 -17 -5 -17 -12 0 -9 42 4 59 9 12 7 13
-9 8 -17 -6 -18 -5 -5 5 28 24 41 46 31 52 -5 4 -13 1 -17 -5 -5 -8 -3 -9 6
-4 8 5 11 4 6 -3 -4 -6 -14 -8 -22 -5 -13 5 -13 7 -2 14 7 5 9 9 4 9 -5 0 -3
7 4 15 11 14 7 19 -12 16 -16 -2 -8 17 9 23 15 6 15 8 3 16 -11 7 -11 10 -2
10 10 0 10 5 1 22 -9 17 -9 23 0 26 9 3 9 8 -1 20 -10 12 -10 16 0 19 6 3 12
9 12 14 0 6 -4 8 -8 5 -4 -2 -8 6 -8 19 0 22 9 25 12 4 1 -5 3 -10 4 -11 7 -7
5 -86 -2 -82 -4 3 -5 -3 -1 -12 4 -11 8 -13 11 -6 2 7 8 10 12 7 5 -3 12 0 16
6 4 7 3 9 -4 5 -6 -3 -13 -2 -17 4 -6 9 8 14 28 11 5 -1 6 3 2 8 -3 6 -13 7
-23 4 -13 -5 -14 -3 -5 7 6 7 9 19 6 28 -5 11 -3 13 7 7 8 -5 11 -4 6 3 -3 5
0 13 6 15 8 4 7 6 -4 6 -9 1 -18 -4 -20 -11 -3 -9 -6 -9 -12 0 -4 8 1 16 16
22 19 9 19 10 3 7 -11 -2 -26 2 -33 10 -8 8 -9 13 -2 13 6 0 8 5 3 13 -12 20
-12 38 0 30 7 -4 21 -9 32 -10 16 -3 17 -1 5 7 -13 8 -13 10 2 10 9 0 19 4 22
9 4 5 -4 7 -16 4 -17 -3 -19 -2 -9 5 9 7 10 12 2 16 -6 4 -11 12 -11 17 0 6 5
7 10 4 6 -3 10 -1 10 4 0 16 -16 13 -30 -4 -9 -10 -9 -15 -1 -15 6 0 11 -5 11
-12 0 -6 -3 -8 -7 -5 -3 4 -11 3 -18 -3 -8 -6 -11 -2 -11 15 0 13 3 22 7 19 4
-2 10 5 14 16 4 11 11 18 16 15 5 -3 6 1 3 10 -5 11 -2 14 10 9 8 -3 14 -11
13 -17 -1 -6 7 -12 18 -13 13 -2 15 -1 3 2 -11 4 -15 13 -12 30 2 13 0 24 -6
24 -6 0 -8 -4 -5 -10 3 -5 2 -10 -3 -10 -17 0 -21 28 -6 34 9 3 13 10 10 15
-4 5 0 11 6 14 7 3 3 4 -10 4 -13 -1 -28 -10 -34 -20 -5 -11 -6 -17 -1 -14 5
3 10 -4 10 -16 2 -15 0 -18 -6 -8 -5 8 -11 9 -15 3 -3 -6 0 -12 6 -15 10 -3 9
-8 -2 -21 -14 -14 -16 -12 -16 28 0 25 4 42 8 40 5 -3 8 0 8 5 0 6 -6 11 -12
11 -10 0 -9 3 1 9 11 7 11 9 0 14 -8 2 6 3 31 2 42 -3 59 5 60 29 0 6 -6 2
-13 -7 -10 -15 -15 -16 -31 -4 -17 12 -17 14 0 28 16 12 17 12 11 -3 -3 -10
-3 -18 2 -18 5 0 11 10 15 23 5 18 8 19 16 7 5 -8 22 -16 37 -17 19 -2 24 1
14 6 -8 5 -21 7 -30 4 -12 -5 -11 -1 4 14 24 24 32 24 73 -5 18 -13 32 -19 32
-13 0 5 -9 13 -20 16 -11 4 -18 10 -15 15 3 4 -2 13 -9 19 -10 8 -16 9 -21 1
-3 -6 -10 -8 -15 -5 -4 3 -13 -2 -20 -10 -7 -8 -17 -15 -22 -15 -7 0 -6 5 1
13 6 8 9 16 6 19 -3 3 3 11 12 19 16 13 17 12 4 -3 -17 -22 2 -24 19 -3 7 9
15 13 18 10 3 -3 12 1 21 8 14 11 14 10 2 -5 -17 -23 -3 -23 29 -1 22 15 23
15 12 1 -9 -11 -10 -18 -2 -23 5 -3 10 -2 10 4 0 6 7 7 17 4 11 -4 14 -3 9 6
-5 8 4 7 29 -3 21 -9 39 -16 41 -16 2 0 1 -6 -2 -14 -3 -8 -1 -17 5 -21 7 -4
8 0 4 11 -5 13 -3 15 8 9 11 -7 12 -6 2 7 -7 8 -10 18 -6 22 4 4 0 4 -9 1 -9
-4 -19 -2 -23 4 -4 7 0 8 11 4 13 -5 15 -3 10 8 -4 8 4 1 19 -16 21 -25 26
-26 23 -10 -2 12 2 19 10 18 6 -2 12 2 12 8 0 8 4 8 14 0 10 -9 16 -9 21 -1 5
8 11 8 19 1 7 -6 16 -8 20 -4 10 11 37 12 30 2 -3 -5 -10 -6 -16 -3 -7 5 -8 2
-3 -6 5 -8 4 -11 -2 -7 -5 3 -10 0 -10 -7 0 -7 6 -13 13 -13 7 0 11 3 9 7 -6
9 34 42 44 35 5 -2 7 9 6 25 -2 27 0 30 19 25 19 -5 19 -4 -2 7 -13 6 -21 17
-18 23 2 7 -1 18 -7 24 -9 9 -8 14 3 21 8 5 10 10 4 10 -6 0 -14 -3 -18 -7 -9
-10 -96 -11 -90 -2 2 4 -3 10 -12 13 -8 3 -13 2 -10 -3 3 -5 -1 -11 -9 -15 -8
-3 -17 -1 -20 4 -4 6 -11 10 -16 10 -6 0 -7 -6 -3 -12 5 -9 2 -9 -9 1 -12 9
-17 10 -17 2 0 -7 -4 -9 -10 -6 -17 10 -11 24 8 20 26 -5 49 10 28 18 -9 4
-16 12 -16 18 0 8 4 8 15 -1 10 -9 15 -9 15 -1 0 6 -4 11 -10 11 -5 0 -10 8
-10 17 0 15 3 15 21 -4 17 -17 19 -24 10 -41 -7 -14 -8 -23 -1 -27 5 -3 10 3
10 14 0 25 13 27 30 6 7 -8 17 -12 23 -8 6 4 7 1 2 -7 -5 -9 -4 -11 3 -6 9 5
9 13 2 27 -13 24 -21 25 -13 2 3 -10 -12 0 -34 23 -41 42 -68 51 -77 27 -3 -8
-1 -11 4 -8 6 3 10 2 10 -4 0 -6 -10 -15 -22 -22 -18 -10 -20 -9 -14 6 3 10
-2 28 -13 44 l-20 27 38 0 c21 -1 45 -7 54 -15 14 -11 18 -11 22 1 4 10 21 14
58 13 65 -1 87 4 87 20 0 7 6 16 13 18 9 4 9 6 -1 6 -7 1 -10 6 -7 11 4 6 12
7 19 3 7 -4 5 -1 -4 7 -8 9 -16 22 -18 30 -5 20 -21 28 -43 23 -11 -3 -19 0
-19 6 0 7 5 9 10 6 6 -3 10 -1 10 5 0 7 -7 10 -15 6 -8 -3 -21 4 -30 17 -8 12
-15 16 -15 10 0 -7 6 -15 12 -19 9 -6 5 -11 -12 -16 -25 -7 -25 -8 2 -4 15 2
25 0 22 -5 -6 -11 -84 -7 -84 4 0 4 -6 5 -12 0 -7 -4 -22 -9 -33 -11 -18 -2
-18 -2 -2 10 17 12 16 14 -3 30 -19 17 -20 16 -31 -5 -11 -19 -10 -20 2 -10
10 8 20 9 29 3 12 -8 10 -10 -8 -10 -16 0 -21 -4 -16 -12 5 -9 2 -9 -9 1 -10
7 -17 9 -17 3 0 -11 -18 -11 -37 1 -8 5 -13 3 -13 -4 0 -10 -3 -10 -12 -1 -7
7 -17 8 -29 2 -22 -12 -49 -3 -43 15 4 9 -1 12 -13 10 -10 -2 -20 -4 -23 -4
-3 -1 1 -5 9 -10 9 -6 10 -11 2 -15 -10 -6 -15 6 -12 27 2 11 -14 8 -28 -5 -9
-8 -11 -8 -8 -2 4 7 0 14 -8 17 -10 4 -12 1 -9 -11 3 -9 -5 1 -17 23 -12 22
-27 43 -33 48 -6 4 3 5 21 2 28 -4 32 -3 27 12 -5 17 -5 17 9 1 16 -20 37 -24
37 -7 0 5 -4 8 -9 5 -5 -3 -15 2 -22 11 -12 15 -12 16 5 10 17 -7 17 -6 5 10
-12 15 -12 16 4 10 9 -3 17 -2 17 3 0 19 -24 10 -48 -17 -15 -19 -25 -24 -28
-15 -3 6 -10 10 -15 6 -5 -3 -9 0 -9 5 0 6 5 11 11 11 5 0 8 4 5 8 -3 5 1 9 9
9 11 0 12 -4 4 -13 -7 -8 -7 -14 1 -19 5 -3 10 1 10 9 0 21 43 48 64 40 9 -3
16 -2 16 4 0 5 -14 9 -31 8 -16 -1 -32 1 -35 6 -3 5 -10 6 -15 2 -5 -3 -7 -9
-4 -14 3 -5 -3 -8 -14 -7 -11 1 -18 3 -16 6 3 2 -1 11 -7 20 -10 13 -10 14 2
4 21 -19 35 -16 19 4 -8 10 -9 14 -2 10 8 -5 11 0 10 13 -1 11 -7 20 -14 20
-23 0 -21 15 3 16 13 1 21 -2 18 -7 -3 -5 2 -12 11 -15 13 -5 14 -9 4 -15 -17
-10 -6 -21 24 -24 17 -2 23 3 24 17 2 20 1 20 -12 2 -7 -11 -17 -15 -21 -11
-5 4 -2 12 5 16 10 7 9 10 -8 16 -12 3 -19 11 -15 16 4 6 11 6 20 -2 8 -6 17
-9 21 -5 3 3 1 6 -6 6 -7 0 -10 4 -6 10 3 5 13 7 23 4 14 -5 14 -3 -2 6 -10 7
-21 8 -25 4 -8 -12 -31 -16 -31 -6 0 5 10 14 23 20 12 6 16 11 9 11 -7 1 -11
5 -8 10 9 15 45 1 39 -15 -3 -8 -1 -14 4 -14 19 0 9 32 -13 40 -12 5 -25 13
-28 19 -9 13 14 61 30 61 16 0 26 28 13 36 -6 3 -13 3 -16 0 -4 -3 -1 -6 6 -6
7 0 9 -5 5 -12 -5 -7 -11 -5 -21 7 -16 23 -17 35 0 31 6 -1 9 -1 5 1 -5 3 -8
9 -8 14 0 6 5 7 10 4 6 -3 10 -2 10 4 0 5 -4 13 -10 16 -5 3 -10 1 -10 -6 0
-7 -3 -10 -6 -6 -3 3 -2 13 4 22 8 16 11 16 24 -4 l15 -22 6 23 c6 21 7 21 25
5 10 -9 22 -14 25 -10 4 3 7 1 7 -5 0 -7 5 -12 11 -12 8 0 8 5 -1 15 -7 8 -16
13 -20 10 -5 -3 -11 -1 -15 5 -3 5 3 10 15 10 17 0 19 5 15 30 -3 18 -1 30 5
30 6 0 8 -5 5 -10 -7 -12 23 -9 44 4 10 6 12 5 7 -2 -4 -7 -2 -12 3 -12 6 0
11 7 11 15 0 8 4 15 10 15 5 0 7 -6 4 -13 -3 -8 2 -14 11 -14 8 0 15 4 15 8 0
4 7 10 16 13 8 3 12 2 9 -4 -8 -14 8 -13 22 1 7 7 19 8 30 4 10 -5 24 -7 31
-6 6 1 12 -3 12 -9 0 -6 -6 -8 -12 -4 -9 6 -9 3 0 -9 8 -9 11 -20 8 -25 -3 -5
1 -9 9 -9 10 0 11 5 5 17 -12 22 4 44 33 45 19 1 23 -3 22 -20 -2 -15 3 -21
19 -22 18 -2 19 -1 4 8 -9 5 -15 16 -12 24 4 8 9 13 13 11 3 -2 22 5 41 15 19
11 26 17 15 14 -17 -4 -21 0 -21 20 0 19 4 24 16 20 11 -4 11 -2 -2 8 -10 8
-19 30 -20 50 -2 20 -8 39 -15 41 -9 4 -10 -1 -3 -20 13 -34 13 -39 -5 -24 -8
7 -12 17 -8 23 4 6 -9 2 -29 -10 -20 -12 -39 -18 -43 -15 -10 10 -29 9 -37 -3
-5 -7 -8 -6 -8 1 0 6 8 18 17 25 9 8 14 9 10 3 -4 -7 2 -10 16 -10 28 2 47 14
47 29 -1 8 -5 6 -13 -3 -17 -21 -34 -19 -52 7 -13 19 -13 24 2 51 14 24 23 29
50 29 18 -1 33 -5 33 -10 0 -4 5 -5 10 -2 6 4 7 11 4 17 -4 6 1 6 14 -1 18 -9
19 -8 15 12 -5 22 -5 22 10 2 8 -11 13 -24 10 -29 -4 -5 -1 -6 6 -2 8 5 6 15
-9 36 -19 27 -22 61 -7 76 4 4 7 12 7 18 0 6 -5 4 -10 -4 -7 -12 -10 -12 -10
-1 0 8 -6 11 -16 7 -23 -9 -46 24 -31 43 7 9 0 7 -18 -5 -16 -10 -33 -23 -37
-29 -5 -6 -11 -6 -20 3 -6 6 -19 12 -27 12 -14 0 -14 -2 -1 -11 12 -9 12 -10
-3 -5 -10 3 -23 6 -28 6 -6 0 -7 5 -4 10 4 6 10 8 14 6 4 -3 13 0 21 5 12 8
11 9 -5 7 -11 -2 -19 2 -18 8 1 6 -5 11 -12 11 -11 0 -12 -4 -4 -13 7 -8 7
-14 -1 -19 -5 -3 -10 -1 -10 5 0 6 -4 8 -10 5 -5 -3 -10 0 -10 7 0 9 -3 9 -10
-2 -9 -14 -11 -13 -14 9 -2 19 -12 20 -13 1 -1 -10 5 -21 13 -24 23 -9 16 -23
-11 -23 -14 0 -25 4 -25 9 0 5 5 6 10 3 24 -15 7 4 -17 21 -24 15 -26 15 -14
1 11 -15 11 -17 -2 -17 -19 0 -27 20 -16 41 5 10 3 16 -6 16 -7 0 -11 -7 -7
-15 4 -11 2 -13 -8 -7 -8 5 -4 -5 8 -22 15 -22 17 -30 7 -30 -8 0 -12 3 -10 7
3 4 -5 16 -17 26 -21 19 -21 19 -9 -3 6 -12 8 -24 4 -26 -8 -4 -65 -2 -70 3
-8 7 -29 5 -34 -3 -3 -5 -9 -2 -12 6 -4 12 0 15 14 12 16 -3 19 0 15 11 -3 9
-6 18 -6 20 0 2 -4 4 -10 4 -5 0 -6 -8 -3 -17 6 -16 5 -16 -10 -5 -14 12 -15
11 -11 -12 2 -15 0 -26 -6 -26 -6 0 -8 5 -5 10 3 6 -1 10 -10 10 -10 0 -13 -5
-9 -12 5 -9 2 -9 -9 1 -18 14 -22 22 -9 20 20 -3 28 3 29 24 2 21 1 21 -10 2
-7 -11 -21 -22 -31 -23 -18 -3 -18 -2 -5 14 7 10 9 15 2 11 -6 -4 -13 -4 -16
0 -2 5 -2 2 -1 -4 2 -7 -1 -13 -5 -13 -5 0 -12 6 -14 13 -4 9 -6 9 -6 -1 -1
-7 -5 -11 -11 -7 -5 3 -7 12 -3 20 3 8 3 15 0 15 -3 0 -7 -6 -10 -14z m69 -65
c1 -6 0 -7 -3 -1 -2 5 -10 7 -15 4 -7 -4 -8 -2 -4 4 4 7 2 12 -3 12 -6 0 -11
-6 -11 -12 0 -9 -3 -8 -9 2 -6 8 -7 18 -4 23 6 10 46 -15 49 -32z m344 8 c0
-14 -17 -10 -23 5 -4 10 -1 13 9 9 7 -3 14 -9 14 -14z m146 -1 c5 -8 2 -9 -9
-5 -10 4 -17 1 -17 -5 0 -6 -3 -9 -6 -5 -7 7 4 27 16 27 5 0 12 -5 16 -12z
m-181 -157 c-2 -9 -4 -20 -4 -25 -1 -6 -8 -1 -16 10 -8 10 -15 15 -15 10 0 -5
-7 -3 -15 4 -10 9 -15 9 -15 1 0 -6 5 -11 12 -11 15 0 1 -13 -17 -16 -8 -1
-15 2 -15 7 0 5 -4 9 -10 9 -5 0 -9 -3 -9 -7 3 -20 -2 -33 -12 -33 -8 0 -8 4
0 13 8 10 7 14 -4 14 -8 0 -11 -5 -8 -11 4 -6 0 -5 -9 2 -11 9 -18 10 -23 2
-3 -6 -11 -8 -16 -5 -5 4 -9 1 -9 -4 0 -11 9 -14 42 -14 10 0 15 -3 12 -8 -3
-5 2 -6 10 -3 12 5 15 0 14 -19 -1 -14 -6 -23 -10 -21 -4 3 -5 10 -2 18 3 7
-2 13 -11 13 -9 0 -14 -6 -11 -12 2 -6 -2 -12 -9 -12 -7 0 -11 6 -8 13 2 6 -1
15 -8 20 -7 4 -10 3 -6 -3 4 -6 -1 -17 -10 -24 -9 -8 -14 -9 -11 -4 4 6 0 18
-7 28 -7 11 -16 14 -19 8 -4 -5 -2 -12 4 -16 5 -3 10 -11 10 -18 0 -6 -6 -2
-14 8 -12 16 -16 17 -30 6 -9 -8 -16 -9 -16 -3 0 6 9 14 20 17 11 4 18 11 15
16 -4 5 -20 2 -38 -7 -25 -12 -28 -12 -14 0 10 7 14 16 10 18 -4 3 -3 3 4 2 6
-2 23 6 36 16 13 11 27 16 31 13 3 -3 6 -1 6 5 0 7 7 12 15 12 8 0 15 6 15 12
0 7 7 2 16 -11 l17 -24 12 23 c8 15 15 19 19 11 4 -6 2 -11 -3 -11 -6 0 -11
-4 -11 -8 0 -4 9 -8 20 -8 15 0 19 5 14 21 -4 16 -3 17 5 5 10 -13 11 -13 11
0 1 12 3 11 11 -3 6 -9 15 -15 21 -11 7 4 5 10 -3 16 -11 8 -10 9 4 4 10 -3
17 0 17 7 0 8 3 8 9 -2 5 -7 7 -21 6 -30z m42 32 c-4 -3 -2 -12 5 -20 6 -7 8
-16 5 -20 -4 -3 -2 -14 3 -23 7 -13 5 -22 -7 -31 -14 -12 -15 -11 -9 8 4 12 2
24 -4 28 -8 5 -8 11 1 21 9 11 8 15 -6 20 -13 5 -14 9 -3 15 16 10 24 12 15 2z
m59 -6 c18 7 18 -3 -3 -39 -14 -23 -15 -32 -5 -35 6 -3 12 -9 12 -15 0 -6 -7
-8 -15 -4 -8 3 -14 2 -14 -2 4 -24 -4 -31 -31 -27 -18 2 -30 -1 -30 -8 -1 -7
-10 -1 -20 12 -11 13 -20 19 -20 15 0 -5 -7 -1 -14 9 -9 11 -17 14 -20 8 -4
-6 2 -16 14 -23 11 -7 20 -16 20 -21 0 -4 -6 -5 -12 0 -7 4 -17 8 -23 8 -5 1
-9 6 -7 13 3 16 -15 16 -21 0 -2 -7 -3 -5 -2 4 2 9 -1 18 -6 20 -4 2 -4 10 1
18 8 13 10 12 10 -2 0 -10 4 -18 10 -18 5 0 8 6 6 13 -1 6 -1 8 2 4 2 -5 11 1
19 13 13 19 16 19 26 6 11 -15 40 -9 38 8 -3 19 0 26 10 26 8 0 8 -4 0 -14 -9
-10 -9 -16 -1 -21 6 -4 8 -15 5 -25 -8 -25 9 -34 26 -14 18 22 23 58 7 48 -10
-6 -10 -4 0 8 9 11 10 18 2 23 -6 3 -7 11 -4 17 4 6 10 6 16 0 6 -6 17 -8 24
-5z m-606 -3 c0 -8 -19 -13 -24 -6 -3 5 1 9 9 9 8 0 15 -2 15 -3z m260 -4 c0
-5 -8 -10 -17 -10 -15 0 -16 2 -3 10 19 12 20 12 20 0z m40 4 c0 -11 -45 -43
-60 -43 -8 0 -5 4 8 9 12 5 25 16 28 25 6 14 24 21 24 9z m-285 -14 c-3 -6 1
-13 10 -16 11 -5 13 -10 5 -19 -8 -10 -7 -16 7 -24 10 -6 14 -11 9 -11 -5 0
-18 7 -28 17 -17 15 -20 15 -40 -3 -13 -10 -20 -15 -16 -10 4 5 3 18 -3 29 -9
15 -8 18 2 12 9 -6 11 -3 6 9 -4 10 -3 15 4 11 5 -4 7 -16 4 -28 -6 -20 -5
-21 8 -5 10 13 16 15 25 6 9 -9 12 -9 12 -1 0 7 -5 15 -10 18 -10 6 -5 25 6
25 3 0 2 -5 -1 -10z m-192 -44 c3 -7 -1 -13 -9 -13 -8 0 -12 3 -9 5 3 3 0 11
-7 19 -8 11 -7 12 5 7 8 -3 18 -11 20 -18z m240 0 c4 -10 1 -13 -8 -9 -8 3
-12 9 -9 14 7 12 11 11 17 -5z m301 -4 c3 -5 -1 -9 -9 -9 -8 0 -12 4 -9 9 3 4
7 8 9 8 2 0 6 -4 9 -8z m-348 -36 c2 -11 1 -12 -3 -2 -2 9 -11 12 -20 9 -11
-4 -14 -3 -9 6 10 16 31 8 32 -13z m684 -24 c0 -5 -7 -9 -15 -9 -8 0 -12 4 -9
9 3 4 9 8 15 8 5 0 9 -4 9 -8z m-880 -10 c0 -13 -12 -22 -22 -16 -10 6 -1 24
13 24 5 0 9 -4 9 -8z m218 -137 c-3 -3 -9 2 -12 12 -6 14 -5 15 5 6 7 -7 10
-15 7 -18z m311 5 c15 8 21 8 17 1 -4 -6 -1 -11 6 -12 10 0 10 -2 -1 -6 -11
-5 -11 -7 0 -15 10 -6 7 -7 -10 -3 -18 6 -22 4 -16 -6 5 -8 5 -11 0 -7 -4 4
-15 2 -23 -4 -11 -10 -18 -7 -33 12 -12 15 -17 18 -13 8 3 -10 2 -18 -3 -18
-11 0 -10 -75 1 -101 4 -9 -3 -30 -18 -51 -13 -20 -22 -39 -18 -42 3 -3 1 -6
-5 -6 -6 0 -16 7 -23 15 -11 13 -10 14 4 9 9 -4 16 -3 15 2 -1 5 -1 16 0 24 1
12 3 12 10 2 7 -11 9 -11 14 2 4 9 3 15 -1 15 -18 -3 -30 2 -35 14 -3 8 4 14
16 15 17 1 19 -1 7 -8 -13 -8 -13 -10 2 -10 10 0 16 7 15 19 -1 11 -8 18 -22
17 -14 -1 -19 4 -17 18 2 12 -1 16 -9 10 -8 -5 -10 -3 -4 6 6 10 13 7 27 -11
17 -20 19 -21 13 -4 -4 11 -8 26 -8 33 0 7 -6 11 -13 8 -8 -3 -16 -1 -19 5 -4
5 -1 8 7 7 8 -2 12 5 10 17 -2 16 -1 17 7 5 9 -13 11 -12 12 5 l0 20 9 -20 c9
-22 10 -21 14 12 3 28 16 43 16 20 0 -9 6 -16 13 -14 7 1 11 -6 9 -18 -2 -19
-2 -19 9 -2 8 14 8 22 0 30 -6 6 -11 15 -11 21 0 5 6 2 13 -8 12 -16 17 -17
36 -6z m-89 6 c0 -2 -7 -7 -16 -10 -8 -3 -12 -2 -9 4 6 10 25 14 25 6z m-245
-16 c3 -5 1 -10 -4 -10 -6 0 -11 5 -11 10 0 6 2 10 4 10 3 0 8 -4 11 -10z m40
-10 c-3 -5 -12 -10 -18 -10 -7 0 -6 4 3 10 19 12 23 12 15 0z m-60 -10 c4 -6
11 -8 16 -5 5 4 9 1 9 -5 0 -6 6 -8 13 -4 10 6 10 4 0 -7 -7 -7 -13 -19 -13
-27 0 -9 7 -6 21 9 11 13 18 19 15 13 -3 -7 1 -14 9 -18 9 -3 12 -12 9 -21 -4
-9 -12 -14 -20 -11 -7 3 -18 -2 -26 -11 -11 -14 -10 -15 12 -9 18 5 16 1 -10
-13 -19 -11 -28 -20 -20 -21 12 0 13 -2 1 -9 -10 -7 -11 -13 -2 -27 11 -19 11
-19 9 0 -2 13 4 20 20 22 12 2 22 -1 22 -7 0 -5 5 -7 12 -3 7 4 3 -6 -9 -22
-27 -37 -28 -43 -9 -57 20 -15 28 -54 16 -76 -6 -11 -3 -22 8 -36 17 -20 17
-20 -4 -2 -31 26 -41 21 -14 -8 13 -14 20 -28 17 -32 -4 -3 -2 -12 5 -20 8
-11 8 -17 -2 -26 -10 -9 -11 -9 -6 1 4 7 2 19 -4 27 -15 19 -37 20 -23 3 13
-17 14 -58 2 -58 -5 0 -9 -5 -9 -11 0 -5 4 -8 9 -4 6 3 9 -3 8 -14 0 -11 -4
-18 -8 -15 -4 2 -10 -2 -13 -8 -3 -7 -3 -2 1 12 5 22 4 23 -10 11 -13 -10 -14
-18 -6 -33 6 -11 8 -22 6 -25 -3 -2 -8 5 -12 16 -3 12 -11 18 -17 15 -7 -4 -8
-2 -4 4 6 11 -6 16 -26 13 -13 -2 -9 17 5 22 8 3 5 12 -11 29 -19 21 -20 26
-8 31 11 4 13 1 9 -11 -6 -15 -5 -15 11 -3 17 14 16 16 -6 33 -22 18 -22 19
-4 33 10 8 23 12 27 9 5 -3 9 -1 9 4 0 18 -14 22 -35 8 -22 -14 -22 -14 -11 9
6 14 15 25 19 25 5 0 6 4 2 10 -3 5 -13 7 -23 4 -14 -5 -14 -4 -2 4 10 8 18 8
27 0 9 -7 13 -7 13 1 0 6 -7 14 -15 17 -8 4 -15 10 -15 16 0 5 4 7 9 3 5 -3
12 -1 15 4 9 14 -20 21 -33 8 -9 -9 -11 -8 -6 6 4 9 11 17 15 17 5 0 6 15 4
33 -4 24 -2 28 5 17 9 -13 11 -13 11 1 0 24 -11 30 -29 16 -8 -6 -5 3 8 21 21
29 18 42 -5 25 -5 -5 5 5 23 20 18 16 33 34 33 40 -1 7 -10 1 -21 -12 -11 -13
-23 -21 -26 -17 -4 4 -1 11 7 16 8 6 11 10 6 10 -5 0 -1 9 8 19 17 18 17 20
-1 30 -10 6 -13 11 -6 11 6 0 15 -5 18 -10z m-20 -20 c-3 -5 -12 -10 -18 -10
-7 0 -6 4 3 10 19 12 23 12 15 0z m-15 -24 c0 -3 -4 -8 -10 -11 -5 -3 -10 -1
-10 4 0 6 5 11 10 11 6 0 10 -2 10 -4z m-136 -47 c-4 -7 -44 0 -44 7 0 2 11 3
24 2 14 -1 23 -5 20 -9z m236 -30 c0 -5 -4 -7 -10 -4 -5 3 -10 1 -10 -5 0 -6
-5 -8 -11 -4 -8 4 -7 9 2 15 19 12 29 11 29 -2z m17 -86 c-4 -3 -1 -13 6 -22
11 -14 10 -14 -5 -2 -21 15 -23 31 -6 31 6 0 8 -3 5 -7z m188 -3 c3 -6 -1 -13
-10 -16 -11 -5 -13 -9 -6 -14 7 -4 2 -11 -13 -18 -19 -8 -27 -8 -32 0 -4 7 -3
8 4 4 19 -11 14 5 -5 21 -16 13 -16 13 3 4 16 -8 25 -7 33 3 6 7 8 16 4 19 -3
4 -1 7 5 7 6 0 14 -5 17 -10z m-10 -159 c3 -5 2 -12 -3 -15 -5 -3 -9 1 -9 9 0
17 3 19 12 6z m-271 -157 c3 -8 2 -12 -4 -9 -6 3 -10 10 -10 16 0 14 7 11 14
-7z m42 -159 c-5 -14 5 -20 27 -16 5 1 6 -3 2 -9 -3 -5 -2 -10 3 -10 16 0 22
13 11 26 -7 8 -6 14 2 20 7 4 9 3 5 -4 -3 -6 -2 -13 4 -17 5 -3 10 0 10 7 0
11 2 11 8 0 5 -7 21 -15 37 -18 25 -4 27 -3 15 11 -8 10 -9 15 -1 15 6 0 11
-4 11 -9 0 -5 9 -12 20 -16 11 -3 19 -11 17 -17 -1 -6 5 -13 13 -15 13 -4 13
-3 0 6 -12 8 -12 11 -1 11 8 0 4 8 -10 20 -13 10 -18 19 -11 20 6 0 12 -5 12
-11 0 -5 4 -8 9 -5 5 3 12 -1 15 -10 5 -13 9 -14 21 -4 8 7 15 20 15 29 1 14
2 13 11 -2 8 -14 14 -16 25 -6 8 6 17 9 21 6 3 -4 13 -1 22 5 10 8 9 4 -3 -10
-11 -12 -14 -22 -9 -22 6 0 16 6 22 14 6 7 23 14 37 14 16 0 21 -3 14 -8 -8
-5 -9 -10 -2 -14 6 -4 16 3 22 14 14 26 22 25 59 -6 34 -28 39 -44 16 -44 -8
0 -15 4 -15 9 0 14 -30 22 -47 13 -8 -5 -14 -13 -13 -18 1 -5 -4 -10 -10 -12
-9 -3 -9 1 0 19 11 23 11 24 -6 4 -11 -13 -15 -14 -11 -5 5 18 -28 25 -38 9
-4 -5 -11 -6 -17 -3 -7 4 -8 2 -4 -4 4 -7 -1 -9 -15 -7 -12 2 -18 1 -15 -3 4
-4 9 -5 10 -2 4 7 36 -21 36 -31 0 -5 -5 -9 -11 -9 -5 0 -7 5 -4 10 3 6 -1 10
-10 10 -9 0 -14 -4 -11 -8 2 -4 1 -14 -5 -22 -6 -11 -9 -12 -9 -2 0 7 -5 10
-12 6 -6 -4 -8 -3 -5 3 4 6 -1 17 -10 24 -14 12 -16 12 -11 -2 3 -9 2 -22 -3
-30 -6 -10 -9 -11 -9 -1 0 9 -5 10 -18 3 -13 -7 -22 -7 -30 1 -8 8 -15 8 -27
-2 -10 -8 -15 -9 -15 -1 0 22 -2 26 -16 34 -8 4 -19 5 -26 1 -7 -5 -8 -3 -3 6
6 9 4 11 -4 5 -10 -6 -11 -3 -2 13 8 15 7 21 -4 26 -8 3 -17 1 -20 -4 -3 -4 1
-10 7 -13 10 -3 10 -8 -1 -18 -12 -12 -13 -12 -6 0 6 10 4 12 -4 7 -6 -4 -18
-2 -26 4 -11 9 -15 9 -15 1 0 -6 5 -11 10 -11 6 0 10 -5 10 -11 0 -8 -6 -7
-17 2 -9 8 -14 9 -11 4 4 -6 3 -17 -3 -25 -5 -8 -9 -10 -9 -4 0 13 -31 14 -47
1 -9 -6 -13 -6 -13 2 0 6 5 11 11 11 5 0 8 4 5 9 -3 5 1 12 10 15 13 5 14 9 4
21 -9 10 -9 15 -1 15 6 0 11 -4 11 -10 0 -5 5 -10 10 -10 6 0 10 6 9 13 -2 20
1 37 7 37 3 0 4 -7 0 -15z m365 -57 l19 -23 20 23 19 23 33 -24 c18 -13 40
-22 50 -20 9 2 19 0 22 -6 3 -5 -2 -8 -11 -6 -22 3 -45 -14 -37 -27 4 -6 -2
-5 -14 1 -27 14 -35 14 -26 -1 4 -7 -3 -4 -16 7 -18 15 -22 16 -18 4 4 -9 1
-16 -7 -16 -8 0 -11 7 -7 16 5 13 3 14 -10 3 -13 -10 -20 -8 -42 14 -20 21
-24 30 -15 40 15 18 18 18 40 -8z m-280 -29 c6 -10 9 -10 9 -1 0 6 5 12 11 12
5 0 8 -4 4 -9 -3 -5 -1 -12 5 -16 5 -3 10 -12 10 -18 0 -8 -4 -7 -9 2 -5 8
-22 16 -38 18 -27 4 -27 4 -8 -11 17 -14 17 -15 2 -10 -12 4 -17 2 -15 -7 2
-8 -7 -13 -22 -13 -17 0 -25 5 -24 16 1 9 -5 15 -14 14 -23 -4 -25 -21 -5 -37
10 -8 14 -9 10 -2 -5 8 1 8 19 -2 15 -8 31 -12 35 -9 10 6 5 -24 -6 -33 -4 -4
-5 -3 -2 3 4 7 1 14 -7 17 -19 8 -14 -17 10 -45 11 -14 13 -18 3 -10 -13 10
-19 9 -30 -5 -12 -15 -12 -16 3 -11 9 4 19 1 22 -7 6 -16 -17 -38 -29 -27 -4
4 -6 0 -3 -8 3 -8 14 -14 24 -12 16 2 15 -1 -6 -17 -27 -22 -21 -27 13 -10 21
10 21 10 3 -5 -11 -9 -24 -16 -29 -16 -4 0 -5 -5 -2 -10 4 -6 11 -8 16 -5 5 4
9 1 9 -4 0 -6 -5 -11 -12 -11 -6 0 -4 -8 6 -19 17 -18 16 -20 -3 -26 -23 -7
-41 0 -41 18 0 8 3 8 12 -1 15 -15 28 -15 28 -1 0 5 -5 7 -12 3 -7 -4 -8 -3
-4 5 5 7 2 10 -6 9 -7 -2 -12 3 -10 10 1 8 -2 11 -9 6 -7 -4 -9 -3 -6 3 3 5 0
10 -8 10 -8 0 -15 -4 -15 -9 0 -4 5 -8 12 -8 9 0 9 -3 0 -12 -7 -7 -12 -17
-12 -23 0 -5 5 -3 10 5 6 9 10 10 10 3 0 -6 -4 -14 -8 -17 -11 -7 -9 -36 6
-63 17 -31 -8 -37 -39 -10 -14 12 -20 19 -15 15 20 -16 28 -7 11 12 -17 19
-15 50 5 50 5 0 10 7 10 16 0 8 -5 12 -10 9 -19 -12 -23 26 -4 41 18 14 18 15
-6 9 l-25 -6 23 14 c12 7 20 16 16 20 -4 4 -13 2 -21 -5 -11 -8 -12 -7 -7 6 3
9 10 16 16 16 5 0 7 4 4 9 -3 5 1 12 9 15 13 4 13 2 5 -14 -7 -12 -7 -21 0
-25 9 -5 14 6 12 26 -1 3 6 6 14 6 17 0 18 -9 4 -23 -8 -8 -6 -15 4 -23 12
-10 14 -9 11 6 -1 10 2 26 7 37 7 12 7 16 0 12 -6 -3 -17 3 -25 14 -12 18 -15
18 -20 5 -4 -8 -11 -15 -18 -15 -6 0 -9 6 -6 14 3 7 -2 24 -11 37 -15 22 -15
23 1 10 19 -15 23 -1 5 17 -9 9 -7 16 7 32 20 22 8 28 -14 8 -11 -10 -10 -8 0
12 20 35 41 50 59 40 19 -10 42 -1 34 12 -4 6 -2 8 4 4 6 -3 13 -2 16 3 8 13
36 7 47 -10z m249 -29 c0 -5 -2 -10 -4 -10 -3 0 -8 5 -11 10 -3 6 -1 10 4 10
6 0 11 -4 11 -10z m-110 -124 c0 -2 -8 -10 -17 -17 -16 -13 -17 -12 -4 4 13
16 21 21 21 13z m56 -15 c-11 -12 -13 -20 -6 -23 6 -2 2 -11 -10 -20 -11 -10
-20 -14 -20 -9 0 5 -8 17 -17 27 -16 16 -16 16 3 10 14 -4 27 0 39 14 10 11
20 20 23 20 3 0 -3 -9 -12 -19z m-489 -22 c-8 -13 -13 -15 -18 -7 -10 15 -4
25 15 25 11 0 12 -4 3 -18z m407 -14 c-4 -8 -11 -15 -16 -15 -6 0 -5 6 2 15 7
8 14 15 16 15 2 0 1 -7 -2 -15z m23 -33 c-13 -15 -14 -21 -4 -31 10 -11 8 -11
-9 -3 -12 6 -24 9 -27 6 -3 -3 -8 0 -12 6 -3 6 -3 10 2 9 17 -3 33 1 31 9 0 4
2 15 7 25 5 13 11 15 18 8 7 -7 5 -16 -6 -29z m-429 -58 c0 -13 -5 -24 -10
-24 -5 0 -7 4 -4 9 3 5 -1 14 -9 21 -17 14 -11 32 9 24 7 -3 14 -16 14 -30z
m437 -24 c3 -5 1 -10 -4 -10 -6 0 -11 5 -11 10 0 6 2 10 4 10 3 0 8 -4 11 -10z
m-438 -24 c-3 -7 -1 -18 5 -24 6 -6 6 -16 0 -28 -5 -11 -7 -25 -4 -33 2 -8 -1
-12 -8 -9 -20 6 -21 37 -2 47 15 9 15 11 -1 28 -16 19 -14 33 6 33 5 0 7 -6 4
-14z m250 -28 c-6 -4 -7 -8 -2 -8 6 0 3 -6 -5 -13 -16 -13 -25 -37 -14 -37 4
0 12 7 19 16 9 13 12 13 12 3 0 -8 4 -23 8 -34 7 -19 7 -19 -7 -2 -13 18 -15
18 -29 1 -13 -16 -12 -17 4 -11 11 4 16 3 12 -3 -3 -6 -2 -10 4 -10 5 0 9 -9
8 -20 -1 -11 -5 -20 -10 -20 -5 0 -3 -8 4 -17 8 -9 9 -14 3 -10 -7 4 -11 -2
-11 -18 0 -14 4 -22 9 -19 5 3 4 -3 -3 -14 -12 -19 -31 -23 -45 -9 -7 7 11 11
29 8 5 -1 6 3 2 9 -3 6 -12 8 -18 4 -7 -3 -4 1 6 9 14 11 15 16 5 20 -10 4
-10 8 2 16 13 10 13 11 0 11 -13 0 -13 1 0 11 12 9 13 12 1 16 -10 4 -10 7 -1
13 8 5 2 12 -19 21 -36 16 -39 25 -11 34 19 6 19 7 1 26 -13 15 -20 52 -12 65
1 1 17 -6 36 -14 23 -11 31 -19 22 -24z m-77 -67 c5 -11 18 -22 28 -25 10 -3
18 -16 19 -27 1 -12 -1 -19 -4 -15 -3 3 -12 1 -20 -5 -9 -8 -13 -8 -13 -1 0 6
5 14 10 17 6 3 10 11 10 18 0 6 -7 2 -15 -9 -13 -16 -14 -16 -9 -1 3 9 2 17
-3 17 -6 0 -9 -27 -8 -60 2 -52 0 -58 -13 -47 -8 6 -18 11 -21 9 -3 -2 -7 2
-9 10 -2 8 0 9 5 3 9 -11 33 -18 33 -10 0 3 -9 16 -20 27 -18 20 -19 23 -4 31
14 8 14 11 -3 30 -10 12 -14 19 -9 15 10 -9 36 9 36 24 0 6 -6 6 -14 -1 -11
-9 -16 -9 -22 0 -4 8 -3 9 4 5 7 -4 12 -2 12 3 0 18 19 12 30 -8z m245 -30 c3
-5 1 -12 -5 -16 -5 -3 -10 1 -10 9 0 18 6 21 15 7z m-215 -66 c-19 -10 -20
-13 -6 -18 11 -5 15 -3 10 5 -4 7 -3 8 5 4 15 -10 5 -26 -17 -27 -11 0 -13 -2
-4 -6 9 -4 10 -8 2 -18 -8 -10 -8 -15 1 -21 8 -5 9 -3 4 6 -5 8 -4 11 3 6 6
-4 9 -13 5 -22 -4 -10 -9 -12 -18 -4 -6 5 -16 6 -20 2 -5 -4 -5 2 0 13 4 11 8
36 9 57 0 20 4 34 8 32 3 -2 9 0 13 6 4 6 11 7 17 4 6 -4 2 -12 -12 -19z m-40
-64 c0 -4 -5 -12 -12 -19 -9 -9 -9 -12 0 -12 22 0 27 -2 39 -11 8 -7 16 -3 27
13 9 12 16 19 16 14 0 -5 10 -1 22 10 14 12 18 13 10 3 -6 -9 -8 -20 -4 -24 4
-5 2 -5 -4 -2 -7 4 -11 -3 -11 -19 0 -14 -8 -33 -17 -42 -9 -9 -24 -26 -32
-37 l-16 -20 7 20 c4 11 8 25 8 32 0 7 4 10 8 8 3 -3 13 3 20 12 12 14 12 16
0 9 -9 -6 -12 -5 -9 5 3 8 11 13 17 11 7 -1 9 2 5 9 -5 9 -12 6 -24 -8 -14
-18 -18 -19 -35 -7 -11 8 -25 12 -33 9 -7 -2 -10 0 -7 5 3 6 0 10 -7 11 -10 0
-11 2 0 6 9 3 10 9 3 17 -7 8 -4 12 10 13 10 1 19 -2 19 -6z m25 -91 c-7 -34
-15 -41 -34 -30 -28 14 -34 41 -14 55 24 17 53 2 48 -25z m15 -70 c0 -5 -4
-10 -10 -10 -5 0 -10 5 -10 10 0 6 5 10 10 10 6 0 10 -4 10 -10z m195 -170 c3
-5 1 -10 -4 -10 -6 0 -11 5 -11 10 0 6 2 10 4 10 3 0 8 -4 11 -10z m-131 -8
c3 -5 -9 -17 -26 -27 -22 -12 -29 -14 -23 -4 22 38 38 48 49 31z m136 -27 c11
-13 10 -14 -4 -9 -9 3 -16 10 -16 15 0 13 6 11 20 -6z m-243 -22 c-4 -3 -2
-12 3 -18 8 -9 6 -14 -5 -19 -10 -3 -13 -11 -9 -18 5 -10 4 -10 -6 -1 -15 14
-23 46 -10 38 4 -3 10 2 14 10 3 8 9 15 12 15 4 0 4 -3 1 -7z"/>
<path d="M1715 2491 c-3 -5 -2 -12 3 -15 5 -3 9 1 9 9 0 17 -3 19 -12 6z"/>
<path d="M1554 2475 c-12 -8 -24 -12 -26 -9 -3 2 -11 -2 -17 -10 -9 -11 -9
-16 0 -22 8 -4 9 -3 5 4 -4 7 -2 12 3 12 6 0 11 -4 11 -8 0 -5 7 -17 16 -28
15 -18 15 -18 5 3 -15 31 -5 51 25 47 21 -2 23 0 13 12 -14 17 -10 17 -35 -1z"/>
<path d="M1807 2499 c7 -9 9 -20 5 -25 -4 -4 1 -2 11 5 9 7 17 16 17 19 0 3
-3 2 -7 -1 -3 -4 -13 -1 -22 6 -14 10 -14 10 -4 -4z"/>
<path d="M1730 2428 c0 -5 -4 -7 -9 -3 -5 3 -13 0 -17 -6 -4 -8 -3 -9 5 -5 6
4 14 1 17 -8 3 -8 14 -14 24 -13 14 1 16 4 9 14 -6 7 -8 16 -5 21 3 5 -1 9 -9
9 -8 0 -15 -4 -15 -9z"/>
<path d="M1790 2399 c0 -5 5 -7 10 -4 6 3 10 8 10 11 0 2 -4 4 -10 4 -5 0 -10
-5 -10 -11z"/>
<path d="M1559 2213 c-13 -17 -13 -17 6 -3 11 8 22 16 24 17 2 2 0 3 -6 3 -6
0 -17 -8 -24 -17z"/>
<path d="M1470 2180 c0 -5 5 -10 11 -10 5 0 7 5 4 10 -3 6 -8 10 -11 10 -2 0
-4 -4 -4 -10z"/>
<path d="M1219 2173 c-13 -17 -13 -17 6 -3 11 8 22 16 24 17 2 2 0 3 -6 3 -6
0 -17 -8 -24 -17z"/>
<path d="M1266 2154 c-3 -9 -10 -13 -15 -10 -4 3 -16 -3 -26 -14 -10 -11 -15
-20 -10 -20 4 0 2 -7 -5 -15 -10 -12 -10 -19 -2 -27 7 -7 13 -9 13 -5 1 4 3
12 4 17 1 6 3 15 4 21 0 5 6 7 13 3 6 -4 8 -3 5 3 -6 10 29 50 42 46 13 -3 11
5 -3 10 -8 3 -17 -1 -20 -9z m-16 -18 c0 -2 -8 -10 -17 -17 -16 -13 -17 -12
-4 4 13 16 21 21 21 13z"/>
<path d="M1256 2049 c3 -5 2 -14 -2 -21 -5 -8 -11 -6 -20 6 -11 16 -13 16 -20
-6 -12 -35 -13 -49 -4 -43 4 3 10 -2 14 -10 3 -8 1 -17 -5 -21 -6 -4 -6 -11 2
-20 9 -11 8 -19 -7 -36 -11 -12 -14 -19 -8 -15 6 4 19 -2 29 -13 11 -12 14
-20 7 -21 -7 -1 -16 -3 -22 -4 -5 -1 -14 -3 -20 -4 -5 0 -10 -6 -10 -12 0 -5
4 -8 8 -5 4 2 13 -4 20 -14 9 -14 8 -21 -4 -30 -10 -10 -11 -16 -3 -26 6 -7 7
-19 3 -25 -4 -8 -3 -9 4 -5 7 4 12 2 12 -5 0 -8 4 -8 15 1 8 7 13 16 10 20 -3
5 0 10 7 12 15 5 20 39 7 54 -12 14 5 29 21 19 18 -11 10 11 -10 30 l-20 18
20 19 c12 11 18 27 16 41 -3 12 -5 25 -5 28 -1 4 -11 9 -23 13 -19 5 -21 8 -8
16 8 5 12 10 7 10 -4 0 0 11 9 25 9 14 15 25 13 26 -31 6 -38 6 -33 -2z m3
-26 c12 10 11 7 -2 -13 -14 -22 -14 -27 -1 -44 8 -11 14 -16 14 -12 0 4 5 4
11 0 8 -4 8 -9 0 -17 -15 -15 -14 -30 2 -21 6 4 2 -4 -11 -18 -20 -22 -21 -26
-7 -38 14 -12 14 -15 0 -30 -8 -9 -13 -19 -10 -22 10 -10 14 -49 4 -43 -5 4
-9 2 -9 -4 0 -5 -7 -8 -15 -7 -25 4 -28 14 -6 28 12 7 21 16 21 21 0 4 -4 6
-9 2 -6 -3 -15 5 -22 17 -6 13 -8 20 -4 16 4 -4 16 -3 27 3 20 11 20 11 -1 33
-16 17 -18 25 -9 34 8 8 8 15 -2 27 -11 14 -7 19 13 16 10 -2 9 17 -2 21 -6 2
-12 16 -15 32 -4 22 -2 26 6 18 9 -9 15 -8 27 1z"/>
<path d="M1242 1933 c7 -9 7 -17 -1 -27 -7 -8 -8 -17 -3 -20 12 -7 35 18 25
27 -3 4 -1 12 5 20 9 10 6 13 -13 13 -19 0 -22 -3 -13 -13z"/>
<path d="M1246 1835 c-11 -8 -17 -17 -14 -20 2 -3 13 4 23 15 21 23 18 25 -9
5z"/>
<path d="M1234 1774 c-18 -14 -18 -15 4 -4 12 6 22 13 22 15 0 8 -5 6 -26 -11z"/>
<path d="M1657 1516 c-4 -10 -1 -13 9 -9 8 3 26 -2 42 -11 26 -16 26 -16 -3 8
-35 30 -41 31 -48 12z"/>
<path d="M1526 1511 c-3 -5 1 -14 9 -21 11 -9 14 -8 12 9 -1 22 -12 28 -21 12z"/>
<path d="M1579 1503 c-13 -16 -12 -17 3 -5 9 8 23 10 29 6 8 -4 9 -3 5 4 -10
17 -21 15 -37 -5z"/>
<path d="M1480 1495 c-7 -8 -16 -12 -21 -9 -5 3 -8 0 -7 -8 2 -9 -7 -13 -29
-12 -18 1 -33 -3 -33 -7 0 -5 6 -9 13 -9 8 0 7 -4 -3 -11 -12 -8 -10 -9 7 -4
12 3 24 1 28 -5 4 -7 12 -7 24 0 10 5 22 6 26 2 5 -4 5 -1 1 6 -4 7 -11 10
-16 7 -5 -3 -12 0 -16 6 -4 7 -3 9 2 6 6 -3 16 -2 24 3 10 6 22 3 37 -12 20
-19 21 -19 18 -2 -2 11 -4 20 -5 22 -2 1 -3 5 -4 10 -2 13 -17 32 -25 32 -5 0
-14 -7 -21 -15z m34 -22 l17 -28 -20 24 c-12 13 -21 19 -21 13 0 -5 -8 -13
-17 -16 -15 -6 -15 -4 2 14 10 11 19 20 20 20 2 0 10 -12 19 -27z m-73 -30
c13 -16 12 -17 -3 -4 -10 7 -18 15 -18 17 0 8 8 3 21 -13z"/>
<path d="M1251 1483 c-5 -10 -12 -17 -15 -15 -3 1 -6 -1 -6 -5 0 -4 7 -8 16
-9 9 -1 13 0 10 3 -3 3 -1 14 5 24 12 24 3 25 -10 2z"/>
<path d="M1355 1489 c-10 -15 16 -31 31 -19 6 6 14 7 17 3 4 -3 7 1 7 10 0 10
-4 17 -10 17 -5 0 -10 -5 -10 -11 0 -8 -4 -8 -14 0 -11 9 -16 9 -21 0z"/>
<path d="M1586 1472 c-3 -5 5 -19 18 -31 13 -13 26 -18 30 -13 3 5 -5 19 -18
31 -13 13 -26 18 -30 13z m29 -22 c10 -11 16 -20 13 -20 -3 0 -13 9 -23 20
-10 11 -16 20 -13 20 3 0 13 -9 23 -20z"/>
<path d="M1660 1455 c-7 -9 -10 -18 -6 -22 3 -3 6 0 6 8 1 10 4 9 11 -4 8 -14
14 -16 25 -6 11 9 14 9 14 -1 0 -6 5 -10 11 -8 6 2 9 8 7 13 -2 6 -7 9 -11 7
-4 -1 -10 5 -13 13 -8 19 -28 19 -44 0z m35 -4 c3 -5 0 -13 -6 -17 -7 -4 -9
-3 -5 4 3 5 0 13 -6 15 -9 4 -10 6 -1 6 6 1 14 -3 18 -8z"/>
<path d="M1292 1435 c-7 -8 -10 -15 -6 -15 3 0 0 -7 -7 -17 -13 -15 -12 -15 6
-3 12 7 22 21 22 31 2 22 2 22 -15 4z"/>
<path d="M1211 1416 c-9 -10 -9 -16 -1 -21 8 -5 6 -13 -6 -26 -16 -18 -16 -20
1 -39 10 -11 13 -20 7 -20 -7 0 -12 -5 -12 -10 0 -6 6 -10 13 -9 25 3 37 -1
35 -13 -2 -7 2 -12 7 -13 6 0 15 -4 22 -8 6 -4 14 -3 17 2 3 5 -4 11 -16 14
-21 6 -21 7 -4 26 11 12 14 21 6 26 -5 3 -8 10 -6 14 3 4 1 13 -5 21 -7 12 -9
12 -9 1 0 -8 -9 -2 -21 13 -11 15 -18 33 -15 41 7 19 2 19 -13 1z m24 -57 c-6
-9 9 -14 30 -9 6 1 7 -2 3 -6 -4 -4 -3 -13 2 -19 7 -9 6 -16 -3 -23 -14 -12
-24 -7 -47 22 -11 15 -12 18 -1 12 9 -6 12 -5 9 5 -3 8 -11 13 -18 11 -11 -3
-11 0 -1 12 14 16 36 12 26 -5z"/>
<path d="M1236 1332 c-3 -6 1 -15 8 -21 8 -7 17 -8 20 -3 3 6 -1 15 -8 21 -8
7 -17 8 -20 3z"/>
<path d="M1263 1215 c0 -8 4 -12 9 -9 5 3 6 10 3 15 -9 13 -12 11 -12 -6z"/>
<path d="M1219 1204 c-1 -5 -1 -12 -1 -16 1 -3 -5 -12 -13 -18 -19 -16 -19
-27 -1 -27 7 0 13 7 12 16 0 9 6 16 14 16 21 2 41 -15 33 -28 -3 -6 -1 -7 6
-3 8 6 9 12 2 20 -6 7 -9 16 -6 19 3 4 2 5 -2 2 -3 -3 -15 2 -25 12 -10 9 -19
12 -19 7z"/>
<path d="M1203 1103 c-17 -6 -16 -28 2 -43 8 -7 12 -16 9 -21 -3 -5 0 -9 5 -9
13 0 14 17 2 24 -4 3 -7 17 -6 31 2 14 3 25 2 24 -1 0 -8 -3 -14 -6z"/>
<path d="M1254 1081 c21 -24 21 -37 -1 -20 -16 13 -17 12 -5 -3 15 -18 39 -15
39 5 0 7 -11 18 -25 25 -23 11 -24 10 -8 -7z"/>
<path d="M1255 1000 c3 -5 8 -10 11 -10 2 0 4 5 4 10 0 6 -5 10 -11 10 -5 0
-7 -4 -4 -10z"/>
<path d="M1201 976 c-9 -11 -9 -16 1 -22 7 -4 10 -4 6 1 -4 4 -3 14 3 22 6 7
9 13 6 13 -2 0 -10 -6 -16 -14z"/>
<path d="M1190 921 c0 -6 4 -12 8 -15 5 -3 9 1 9 9 0 8 -4 15 -9 15 -4 0 -8
-4 -8 -9z"/>
<path d="M1190 764 c-10 -11 -10 -14 -1 -14 7 0 9 -4 6 -10 -10 -17 -1 -11 17
9 13 16 14 20 3 25 -7 2 -19 -2 -25 -10z"/>
<path d="M1813 2695 c0 -8 4 -12 9 -9 5 3 6 10 3 15 -9 13 -12 11 -12 -6z"/>
<path d="M1538 2685 c6 -11 10 -24 11 -29 0 -6 14 -11 31 -12 26 -2 28 -1 15
12 -8 8 -13 20 -11 27 1 7 1 9 -1 4 -3 -4 -9 -5 -14 -2 -5 4 -6 -2 -3 -12 4
-13 0 -11 -16 7 -16 18 -19 20 -12 5z"/>
<path d="M1670 2696 c0 -2 7 -9 15 -16 9 -7 15 -8 15 -2 0 5 -7 12 -15 16 -8
3 -15 4 -15 2z"/>
<path d="M1870 2685 c-7 -9 -11 -17 -9 -20 3 -2 10 5 17 15 14 24 10 26 -8 5z"/>
<path d="M1170 2678 c0 -4 4 -8 9 -8 6 0 12 4 15 8 3 5 -1 9 -9 9 -8 0 -15 -4
-15 -9z"/>
<path d="M1309 2685 c-1 -3 -3 -9 -4 -15 -1 -5 -3 -13 -4 -17 -1 -5 -5 -2 -10
6 -6 9 -11 10 -15 2 -8 -12 -7 -12 46 -15 34 -2 36 -1 26 17 -8 16 -12 17 -19
6 -8 -13 -13 -6 -10 14 1 8 -8 10 -10 2z"/>
<path d="M1196 2662 c-3 -5 1 -9 9 -9 8 0 15 4 15 9 0 4 -4 8 -9 8 -6 0 -12
-4 -15 -8z"/>
<path d="M1840 2661 c0 -6 4 -13 10 -16 6 -3 7 1 4 9 -7 18 -14 21 -14 7z"/>
<path d="M1936 2647 c3 -10 9 -15 12 -12 3 3 0 11 -7 18 -10 9 -11 8 -5 -6z"/>
<path d="M1055 2640 c3 -5 8 -10 11 -10 2 0 4 5 4 10 0 6 -5 10 -11 10 -5 0
-7 -4 -4 -10z"/>
<path d="M1980 2571 c0 -6 4 -13 10 -16 6 -3 7 1 4 9 -7 18 -14 21 -14 7z"/>
<path d="M1865 2492 c-13 -13 -2 -21 25 -18 26 3 30 0 25 -14 -3 -10 -1 -21 4
-25 7 -4 8 1 4 11 -5 12 -3 15 6 9 10 -6 11 -3 2 13 -7 14 -17 19 -28 15 -10
-4 -14 -2 -10 4 6 10 -19 14 -28 5z"/>
<path d="M987 2470 c-3 -11 -3 -20 -1 -20 2 0 8 9 14 20 6 11 7 20 2 20 -6 0
-12 -9 -15 -20z"/>
<path d="M1945 2480 c-3 -6 1 -7 9 -4 18 7 21 14 7 14 -6 0 -13 -4 -16 -10z"/>
<path d="M1970 2459 c0 -5 5 -7 10 -4 6 3 10 8 10 11 0 2 -4 4 -10 4 -5 0 -10
-5 -10 -11z"/>
<path d="M1850 2455 c0 -5 5 -17 10 -25 5 -8 10 -10 10 -5 0 6 -5 17 -10 25
-5 8 -10 11 -10 5z"/>
<path d="M1876 2445 c4 -8 8 -15 10 -15 2 0 4 7 4 15 0 8 -4 15 -10 15 -5 0
-7 -7 -4 -15z"/>
<path d="M1005 2410 c3 -5 1 -11 -5 -15 -5 -3 -10 -12 -10 -18 0 -7 4 -6 10 3
5 8 14 16 20 16 5 1 15 2 22 3 16 2 4 11 -21 16 -12 2 -19 0 -16 -5z"/>
<path d="M935 2380 c-3 -5 -1 -10 4 -10 6 0 11 5 11 10 0 6 -2 10 -4 10 -3 0
-8 -4 -11 -10z"/>
<path d="M1993 2362 c-9 -6 -7 -11 7 -20 12 -7 21 -8 25 -2 4 6 1 9 -7 8 -7
-2 -12 3 -10 10 2 14 1 14 -15 4z"/>
<path d="M955 2351 c-3 -5 -2 -12 3 -15 5 -3 9 1 9 9 0 17 -3 19 -12 6z"/>
<path d="M1019 2333 c-1 -5 -1 -12 0 -16 1 -5 -7 -6 -18 -2 -11 3 -23 0 -27
-6 -4 -8 -3 -9 5 -5 6 4 18 2 26 -4 18 -15 40 -3 26 14 -6 7 -8 16 -4 19 3 4
3 7 0 7 -4 0 -8 -3 -8 -7z"/>
<path d="M2000 2306 c0 -2 7 -7 16 -10 8 -3 12 -2 9 4 -6 10 -25 14 -25 6z"/>
<path d="M975 2280 c-3 -6 1 -7 9 -4 18 7 21 14 7 14 -6 0 -13 -4 -16 -10z"/>
<path d="M1000 2270 c-8 -5 -10 -10 -5 -10 6 0 17 5 25 10 8 5 11 10 5 10 -5
0 -17 -5 -25 -10z"/>
<path d="M976 2245 c4 -8 11 -15 16 -15 6 0 5 6 -2 15 -7 8 -14 15 -16 15 -2
0 -1 -7 2 -15z"/>
<path d="M1015 2250 c-4 -6 -1 -18 7 -27 11 -14 10 -15 -12 -8 l-25 7 24 -21
c13 -11 25 -21 26 -21 5 0 -2 37 -9 48 -4 6 -4 17 -1 22 3 6 4 10 1 10 -3 0
-8 -5 -11 -10z"/>
<path d="M1775 2241 c-3 -5 -1 -12 4 -16 6 -3 7 -13 4 -23 -4 -11 1 -9 15 7
12 13 19 28 16 32 -7 12 -31 11 -39 0z m35 -7 c0 -8 -19 -13 -24 -6 -3 5 1 9
9 9 8 0 15 -2 15 -3z"/>
<path d="M1873 2226 c-1 -12 1 -15 4 -7 5 11 7 11 14 0 6 -10 8 -8 7 7 -2 27
-24 27 -25 0z"/>
<path d="M1955 2240 c-3 -5 -1 -10 4 -10 6 0 11 5 11 10 0 6 -2 10 -4 10 -3 0
-8 -4 -11 -10z"/>
<path d="M2110 2246 c0 -2 7 -7 16 -10 8 -3 12 -2 9 4 -6 10 -25 14 -25 6z"/>
<path d="M1735 2230 c-3 -6 -11 -8 -16 -5 -5 4 -9 2 -9 -4 0 -17 18 -21 24 -5
6 16 26 11 26 -7 0 -6 -6 -7 -12 -3 -9 5 -9 2 1 -9 17 -21 16 -21 18 2 2 24
-22 47 -32 31z"/>
<path d="M893 2215 c0 -8 4 -12 9 -9 5 3 6 10 3 15 -9 13 -12 11 -12 -6z"/>
<path d="M1636 2223 c-3 -4 -6 -11 -6 -16 0 -6 3 -7 7 -4 3 4 12 2 20 -5 20
-17 22 -6 2 14 -9 9 -20 14 -23 11z"/>
<path d="M1680 2208 c22 -21 38 -24 21 -5 -6 8 -9 16 -6 18 2 3 -5 5 -15 5
-19 0 -19 -1 0 -18z"/>
<path d="M830 2199 c0 -5 5 -7 10 -4 6 3 10 8 10 11 0 2 -4 4 -10 4 -5 0 -10
-5 -10 -11z"/>
<path d="M975 2190 c-3 -6 1 -7 9 -4 18 7 21 14 7 14 -6 0 -13 -4 -16 -10z"/>
<path d="M1796 2183 c-6 -14 -5 -15 5 -6 7 7 10 15 7 18 -3 3 -9 -2 -12 -12z"/>
<path d="M1630 2180 c0 -5 5 -10 10 -10 6 0 10 5 10 10 0 6 -4 10 -10 10 -5 0
-10 -4 -10 -10z"/>
<path d="M1710 2180 c-9 -6 -10 -10 -3 -10 6 0 15 5 18 10 8 12 4 12 -15 0z"/>
<path d="M1670 2170 c-9 -6 -10 -10 -3 -10 6 0 15 5 18 10 8 12 4 12 -15 0z"/>
<path d="M1726 2165 c-18 -14 -18 -14 1 -12 11 0 20 7 20 14 0 7 -1 13 -1 13
-1 0 -9 -7 -20 -15z"/>
<path d="M1565 2161 c3 -6 -3 -14 -12 -20 -10 -6 -13 -11 -6 -11 6 0 15 5 18
10 4 6 12 7 18 3 7 -4 6 0 -2 10 -14 18 -26 23 -16 8z"/>
<path d="M893 2135 c0 -8 4 -12 9 -9 5 3 6 10 3 15 -9 13 -12 11 -12 -6z"/>
<path d="M973 2125 c0 -8 4 -12 9 -9 5 3 6 10 3 15 -9 13 -12 11 -12 -6z"/>
<path d="M1629 2131 c8 -5 10 -14 6 -22 -6 -11 -5 -11 5 -2 14 12 6 33 -13 33
-8 0 -7 -3 2 -9z"/>
<path d="M1570 2118 c0 -11 12 -10 30 2 12 7 10 9 -8 7 -12 0 -22 -5 -22 -9z"/>
<path d="M1813 2111 c0 -11 5 -18 9 -15 4 3 5 11 1 19 -7 21 -12 19 -10 -4z"/>
<path d="M1595 2099 c-11 -16 -1 -19 13 -3 7 8 8 14 3 14 -5 0 -13 -5 -16 -11z"/>
<path d="M977 2085 c3 -8 9 -12 14 -9 12 7 11 11 -5 17 -10 4 -13 1 -9 -8z"/>
<path d="M1014 2089 c-3 -6 2 -18 12 -27 17 -16 17 -16 5 0 -7 9 -10 22 -6 28
3 5 4 10 1 10 -3 0 -8 -5 -12 -11z"/>
<path d="M1620 2080 c8 -5 20 -10 25 -10 6 0 3 5 -5 10 -8 5 -19 10 -25 10 -5
0 -3 -5 5 -10z"/>
<path d="M895 2060 c-3 -5 -1 -10 4 -10 6 0 11 5 11 10 0 6 -2 10 -4 10 -3 0
-8 -4 -11 -10z"/>
<path d="M1554 2053 c2 -9 8 -19 14 -21 7 -2 9 -9 6 -14 -4 -7 -2 -8 5 -4 6 4
9 11 6 16 -3 4 1 11 7 14 7 3 3 3 -9 0 -18 -4 -22 -2 -17 10 3 9 2 16 -4 16
-6 0 -9 -8 -8 -17z"/>
<path d="M935 2051 c-3 -5 -2 -12 3 -15 5 -3 9 1 9 9 0 17 -3 19 -12 6z"/>
<path d="M1520 2041 c-12 -24 -13 -34 -1 -27 9 6 22 46 15 46 -2 0 -8 -9 -14
-19z"/>
<path d="M1611 2034 c0 -11 3 -14 6 -6 3 7 2 16 -1 19 -3 4 -6 -2 -5 -13z"/>
<path d="M1666 2038 c3 -5 10 -6 15 -3 13 9 11 12 -6 12 -8 0 -12 -4 -9 -9z"/>
<path d="M1633 2027 c0 -8 6 -14 14 -14 9 0 10 4 2 14 -6 7 -12 13 -14 13 -1
0 -2 -6 -2 -13z"/>
<path d="M890 2019 c0 -5 5 -7 10 -4 6 3 10 8 10 11 0 2 -4 4 -10 4 -5 0 -10
-5 -10 -11z"/>
<path d="M1026 2011 c-4 -5 -2 -12 3 -15 5 -4 12 -2 15 3 4 5 2 12 -3 15 -5 4
-12 2 -15 -3z"/>
<path d="M1550 2005 c0 -5 5 -17 10 -25 5 -8 10 -10 10 -5 0 6 -5 17 -10 25
-5 8 -10 11 -10 5z"/>
<path d="M1774 1976 c1 -8 5 -18 8 -22 4 -3 5 1 4 10 -1 8 -5 18 -8 22 -4 3
-5 -1 -4 -10z"/>
<path d="M1580 1974 c0 -5 7 -18 15 -28 8 -11 15 -16 15 -10 0 5 -7 18 -15 28
-8 11 -15 16 -15 10z"/>
<path d="M1657 1973 c-10 -9 -9 -23 1 -23 5 0 9 7 9 15 0 17 -1 18 -10 8z"/>
<path d="M1714 1960 c0 -13 4 -16 10 -10 7 7 7 13 0 20 -6 6 -10 3 -10 -10z"/>
<path d="M1880 1960 c-9 -6 -10 -10 -3 -10 6 0 15 5 18 10 8 12 4 12 -15 0z"/>
<path d="M899 1948 c-5 -18 -6 -38 -1 -34 7 8 12 36 6 36 -2 0 -4 -1 -5 -2z"/>
<path d="M1540 1920 c-8 -5 -10 -10 -5 -10 6 0 17 5 25 10 8 5 11 10 5 10 -5
0 -17 -5 -25 -10z"/>
<path d="M1716 1913 c-6 -14 -5 -15 5 -6 7 7 10 15 7 18 -3 3 -9 -2 -12 -12z"/>
<path d="M1595 1909 c-4 -6 -5 -12 -2 -15 2 -3 7 2 10 11 7 17 1 20 -8 4z"/>
<path d="M972 1900 c2 -9 -4 -14 -14 -14 -10 1 -15 -2 -13 -6 3 -5 14 -8 24
-7 18 1 22 19 7 34 -4 4 -6 1 -4 -7z"/>
<path d="M1637 1897 c4 -6 0 -8 -9 -5 -8 4 -15 0 -15 -7 0 -10 5 -11 18 -4 24
12 31 26 14 26 -8 0 -11 -5 -8 -10z"/>
<path d="M1676 1901 c-3 -4 3 -16 13 -25 14 -13 18 -14 18 -2 0 8 -5 14 -11
13 -6 -1 -10 4 -8 11 2 14 -4 16 -12 3z"/>
<path d="M1552 1880 c0 -14 2 -19 5 -12 2 6 2 18 0 25 -3 6 -5 1 -5 -13z"/>
<path d="M1030 1880 c0 -5 5 -10 11 -10 5 0 7 5 4 10 -3 6 -8 10 -11 10 -2 0
-4 -4 -4 -10z"/>
<path d="M1755 1881 c-3 -5 -2 -12 3 -15 5 -3 9 1 9 9 0 17 -3 19 -12 6z"/>
<path d="M955 1851 c-3 -5 -2 -12 3 -15 5 -3 9 1 9 9 0 17 -3 19 -12 6z"/>
<path d="M1612 1851 c5 -16 35 -24 43 -11 3 5 -3 7 -12 6 -10 -2 -22 2 -26 8
-6 7 -7 6 -5 -3z"/>
<path d="M1676 1838 c3 -5 10 -6 15 -3 13 9 11 12 -6 12 -8 0 -12 -4 -9 -9z"/>
<path d="M988 1813 c5 -10 7 -25 5 -33 -4 -13 -3 -13 6 -1 9 14 -2 51 -15 51
-2 0 -1 -8 4 -17z"/>
<path d="M1667 1819 c7 -7 15 -10 18 -7 3 3 -2 9 -12 12 -14 6 -15 5 -6 -5z"/>
<path d="M1543 1801 c-7 -11 -9 -22 -6 -25 10 -10 33 -7 33 4 0 5 -8 6 -17 3
-16 -6 -16 -5 -4 10 8 10 12 19 10 22 -3 2 -10 -4 -16 -14z"/>
<path d="M1950 1816 c0 -2 8 -10 18 -17 15 -13 16 -12 3 4 -13 16 -21 21 -21
13z"/>
<path d="M907 1799 c7 -7 15 -10 18 -7 3 3 -2 9 -12 12 -14 6 -15 5 -6 -5z"/>
<path d="M1585 1799 c-11 -16 -1 -19 13 -3 7 8 8 14 3 14 -5 0 -13 -5 -16 -11z"/>
<path d="M1010 1765 c0 -8 5 -15 11 -15 5 0 8 -4 5 -9 -3 -5 -14 -8 -24 -6 -9
1 -11 0 -4 -2 18 -6 15 -23 -5 -23 -9 0 -14 -3 -10 -6 8 -9 48 6 42 16 -3 5
-1 12 5 15 8 5 8 11 1 19 -6 7 -8 16 -4 19 3 4 1 7 -5 7 -7 0 -12 -7 -12 -15z"/>
<path d="M899 1768 c-5 -18 -6 -38 -1 -34 7 8 12 36 6 36 -2 0 -4 -1 -5 -2z"/>
<path d="M954 1754 c1 -8 4 -15 7 -16 2 -2 3 -1 2 1 -2 2 2 9 7 16 7 8 5 12
-4 12 -8 0 -13 -6 -12 -13z"/>
<path d="M1607 1750 c10 -11 19 -20 21 -20 1 0 -2 9 -8 20 -6 11 -15 20 -20
20 -6 0 -2 -9 7 -20z"/>
<path d="M1690 1766 c0 -2 7 -7 16 -10 8 -3 12 -2 9 4 -6 10 -25 14 -25 6z"/>
<path d="M1555 1749 c-19 -9 -19 -9 2 -5 13 2 29 -4 39 -15 9 -10 12 -19 6
-19 -6 0 -13 4 -17 9 -3 6 -13 9 -23 8 -20 -1 -25 -34 -4 -34 7 0 10 7 7 15
-3 8 0 12 7 10 13 -5 14 -8 17 -44 1 -11 6 -14 19 -9 26 11 56 12 68 3 20 -14
46 20 34 43 -6 10 -15 19 -21 19 -6 0 -3 -7 6 -16 12 -12 13 -20 5 -28 -15
-15 -43 4 -51 35 -4 13 -7 18 -8 11 -1 -8 -10 -25 -21 -39 -21 -27 -26 -24
-10 6 13 26 -27 62 -55 50z m99 -57 c2 -4 -4 -8 -14 -8 -10 0 -16 4 -14 8 3 4
9 8 14 8 5 0 11 -4 14 -8z"/>
<path d="M1460 1743 c0 -17 30 -44 41 -38 5 4 9 1 9 -5 0 -6 5 -8 10 -5 6 3
10 15 10 26 0 16 -5 18 -27 14 -16 -2 -30 1 -35 8 -6 9 -8 9 -8 0z"/>
<path d="M1780 1745 c0 -2 6 -8 13 -14 10 -8 14 -7 14 2 0 8 -6 14 -14 14 -7
0 -13 -1 -13 -2z"/>
<path d="M1855 1741 c-3 -5 -2 -12 3 -15 5 -3 9 1 9 9 0 17 -3 19 -12 6z"/>
<path d="M1730 1735 c0 0 9 -8 19 -17 18 -16 20 -15 18 1 0 9 -9 17 -19 17
-10 0 -18 -1 -18 -1z"/>
<path d="M1660 1716 c0 -2 7 -9 15 -16 9 -7 15 -8 15 -2 0 5 -7 12 -15 16 -8
3 -15 4 -15 2z"/>
<path d="M1915 1710 c-4 -6 -12 -7 -18 -4 -7 4 -8 3 -4 -1 13 -15 34 -14 34 1
0 17 -4 18 -12 4z"/>
<path d="M1784 1688 c1 -19 4 -24 13 -17 7 7 14 6 18 -1 8 -13 45 6 44 23 0 9
-2 9 -6 0 -3 -9 -11 -8 -31 5 -14 9 -23 11 -19 5 5 -7 4 -13 -2 -13 -5 0 -11
6 -14 13 -2 6 -4 0 -3 -15z m46 -8 c0 -5 -2 -10 -4 -10 -3 0 -8 5 -11 10 -3 6
-1 10 4 10 6 0 11 -4 11 -10z"/>
<path d="M1953 1689 c-2 -23 3 -25 10 -4 4 8 3 16 -1 19 -4 3 -9 -4 -9 -15z"/>
<path d="M1989 1698 c14 -19 6 -42 -11 -32 -7 5 -8 2 -3 -5 6 -10 11 -9 23 3
15 15 15 17 -3 34 -17 15 -18 15 -6 0z"/>
<path d="M1008 1682 c-8 -9 -15 -28 -16 -42 -1 -18 1 -21 8 -11 4 8 6 21 2 29
-3 9 -1 13 5 9 6 -4 16 0 22 7 7 8 8 17 3 20 -5 3 -16 -2 -24 -12z"/>
<path d="M955 1679 c-3 -4 2 -6 10 -5 21 3 28 13 10 13 -9 0 -18 -4 -20 -8z"/>
<path d="M1996 1641 c-3 -5 1 -14 8 -20 10 -9 16 -9 21 -1 4 6 1 9 -7 8 -7 -2
-12 3 -10 10 2 14 -4 16 -12 3z"/>
<path d="M896 1622 c-3 -5 1 -9 9 -9 8 0 12 4 9 9 -3 4 -7 8 -9 8 -2 0 -6 -4
-9 -8z"/>
<path d="M995 1580 c3 -5 8 -10 11 -10 2 0 4 5 4 10 0 6 -5 10 -11 10 -5 0 -7
-4 -4 -10z"/>
<path d="M1009 1551 c-13 -22 -14 -32 -6 -40 9 -9 8 -14 -3 -21 -8 -5 -17 -7
-21 -4 -4 2 -13 -4 -20 -13 -12 -15 -12 -16 1 -8 15 10 35 15 58 17 6 1 10 4
7 6 -3 3 1 12 8 20 9 13 9 14 0 8 -23 -13 -38 6 -18 21 11 7 15 13 11 13 -5 0
-3 7 4 15 7 8 9 15 4 15 -5 0 -16 -13 -25 -29z"/>
<path d="M981 1554 c0 -11 3 -14 6 -6 3 7 2 16 -1 19 -3 4 -6 -2 -5 -13z"/>
<path d="M1995 1561 c-3 -5 -2 -12 3 -15 5 -3 9 1 9 9 0 17 -3 19 -12 6z"/>
<path d="M886 1538 c3 -5 10 -6 15 -3 13 9 11 12 -6 12 -8 0 -12 -4 -9 -9z"/>
<path d="M1968 1533 c-22 -5 -24 -20 -3 -20 8 0 16 6 19 14 3 7 4 12 3 12 -1
-1 -10 -3 -19 -6z"/>
<path d="M1741 1513 c8 -9 15 -10 24 -3 6 5 15 7 18 3 4 -3 7 -2 7 4 0 5 -13
10 -30 10 -24 0 -27 -3 -19 -14z"/>
<path d="M1832 1514 c-13 -9 -12 -13 9 -27 13 -10 28 -17 34 -17 5 1 -3 8 -18
16 -16 9 -27 18 -24 21 3 2 15 0 26 -6 17 -10 20 -9 14 5 -4 12 -3 15 5 10 7
-4 12 -3 12 3 0 13 -38 10 -58 -5z"/>
<path d="M1900 1518 c0 -4 6 -8 13 -8 7 0 18 -9 25 -20 7 -11 17 -20 22 -20 6
0 1 9 -10 20 -11 11 -20 24 -20 28 0 5 -7 9 -15 9 -8 0 -15 -4 -15 -9z"/>
<path d="M1893 1481 c4 -27 21 -38 32 -22 4 7 0 8 -11 4 -10 -4 -15 -2 -11 3
3 6 1 16 -4 24 -7 11 -8 9 -6 -9z"/>
<path d="M995 1459 c-4 -6 -4 -13 -1 -16 3 -4 6 -1 6 5 0 6 7 9 17 5 11 -4 14
-3 9 5 -9 15 -23 15 -31 1z"/>
<path d="M1950 1456 c0 -2 8 -10 18 -17 15 -13 16 -12 3 4 -13 16 -21 21 -21
13z"/>
<path d="M1924 1442 c-9 -5 -8 -10 2 -19 8 -8 15 -9 19 -3 3 6 1 10 -5 10 -6
0 -8 5 -5 10 7 12 4 12 -11 2z"/>
<path d="M875 1419 c-3 -4 2 -6 10 -5 21 3 28 13 10 13 -9 0 -18 -4 -20 -8z"/>
<path d="M1997 1383 c-11 -10 -8 -20 8 -26 8 -4 17 -2 20 4 4 5 1 8 -7 7 -7
-2 -12 3 -10 10 2 13 -1 15 -11 5z"/>
<path d="M825 1360 c-3 -6 1 -7 9 -4 18 7 21 14 7 14 -6 0 -13 -4 -16 -10z"/>
<path d="M975 1350 c-3 -5 0 -7 8 -4 8 3 18 1 22 -5 3 -6 12 -11 18 -11 7 0 3
7 -7 15 -23 18 -33 19 -41 5z"/>
<path d="M989 1298 c7 -9 9 -23 5 -30 -6 -10 -4 -11 7 0 11 10 10 15 -6 30
-17 15 -18 15 -6 0z"/>
<path d="M1993 1285 c0 -8 4 -12 9 -9 5 3 6 10 3 15 -9 13 -12 11 -12 -6z"/>
<path d="M1866 1272 c-3 -5 -17 -8 -31 -6 -23 2 -25 0 -13 -14 20 -27 22 -28
14 -8 -4 13 -2 17 8 13 7 -3 19 0 26 6 10 9 11 7 6 -13 -6 -22 -5 -23 5 -7 7
13 8 22 1 29 -6 6 -12 6 -16 0z"/>
<path d="M1955 1261 c-3 -5 -2 -12 3 -15 5 -3 9 1 9 9 0 17 -3 19 -12 6z"/>
<path d="M1640 1253 c5 -2 8 -9 4 -14 -3 -5 0 -9 6 -9 15 0 7 23 -8 26 -7 1
-8 0 -2 -3z"/>
<path d="M1700 1251 c-8 -6 -18 -7 -22 -5 -4 3 -8 1 -8 -4 0 -5 11 -9 25 -9
15 0 22 4 18 10 -4 6 0 8 11 4 10 -4 15 -3 11 3 -8 12 -16 12 -35 1z"/>
<path d="M830 1242 c0 -5 7 -9 15 -9 8 0 12 4 9 9 -3 4 -9 8 -15 8 -5 0 -9 -4
-9 -8z"/>
<path d="M894 1235 c3 -23 12 -26 13 -5 1 11 -2 20 -7 20 -4 0 -7 -7 -6 -15z"/>
<path d="M1796 1222 c-3 -5 1 -9 9 -9 8 0 12 4 9 9 -3 4 -7 8 -9 8 -2 0 -6 -4
-9 -8z"/>
<path d="M1895 1220 c3 -5 8 -10 11 -10 2 0 4 5 4 10 0 6 -5 10 -11 10 -5 0
-7 -4 -4 -10z"/>
<path d="M1596 1205 c10 -8 23 -15 28 -15 6 0 1 7 -10 15 -10 8 -23 15 -28 15
-6 0 -1 -7 10 -15z"/>
<path d="M1693 1203 c1 -14 5 -19 12 -14 5 5 18 7 28 6 9 -2 17 1 17 6 0 5
-11 7 -24 5 -14 -2 -27 1 -29 7 -3 7 -4 2 -4 -10z"/>
<path d="M1794 1182 c4 -3 14 -7 22 -8 9 -1 13 0 10 4 -4 3 -14 7 -22 8 -9 1
-13 0 -10 -4z"/>
<path d="M973 1165 c0 -8 4 -12 9 -9 5 3 6 10 3 15 -9 13 -12 11 -12 -6z"/>
<path d="M1535 1160 c-3 -6 1 -7 9 -4 18 7 21 14 7 14 -6 0 -13 -4 -16 -10z"/>
<path d="M1656 1153 c-6 -14 -5 -15 5 -6 7 7 10 15 7 18 -3 3 -9 -2 -12 -12z"/>
<path d="M1576 1151 c-4 -5 3 -7 14 -4 23 6 26 13 6 13 -8 0 -17 -4 -20 -9z"/>
<path d="M1550 1141 c0 -6 4 -13 10 -16 6 -3 7 1 4 9 -7 18 -14 21 -14 7z"/>
<path d="M1609 1123 c-13 -16 -12 -17 4 -4 16 13 21 21 13 21 -2 0 -10 -8 -17
-17z"/>
<path d="M1789 1123 c-13 -16 -12 -17 4 -4 16 13 21 21 13 21 -2 0 -10 -8 -17
-17z"/>
<path d="M1510 1111 c0 -5 7 -11 14 -14 10 -4 13 -1 9 9 -6 15 -23 19 -23 5z"/>
<path d="M1597 1093 c-10 -9 -9 -23 1 -23 5 0 9 7 9 15 0 17 -1 18 -10 8z"/>
<path d="M980 1079 c0 -5 5 -7 10 -4 6 3 10 8 10 11 0 2 -4 4 -10 4 -5 0 -10
-5 -10 -11z"/>
<path d="M1695 1060 c-3 -5 -1 -10 4 -10 6 0 11 5 11 10 0 6 -2 10 -4 10 -3 0
-8 -4 -11 -10z"/>
<path d="M980 1051 c0 -6 4 -13 10 -16 6 -3 7 1 4 9 -7 18 -14 21 -14 7z"/>
<path d="M1574 1040 c0 -13 4 -16 10 -10 7 7 7 13 0 20 -6 6 -10 3 -10 -10z"/>
<path d="M1606 1038 c3 -5 10 -6 15 -3 13 9 11 12 -6 12 -8 0 -12 -4 -9 -9z"/>
<path d="M955 1031 c-3 -5 -2 -12 3 -15 5 -3 9 1 9 9 0 17 -3 19 -12 6z"/>
<path d="M1500 1006 c0 -2 7 -9 15 -16 13 -11 14 -10 9 4 -5 14 -24 23 -24 12z"/>
<path d="M1593 985 c0 -8 4 -12 9 -9 5 3 6 10 3 15 -9 13 -12 11 -12 -6z"/>
<path d="M1533 953 c0 -6 5 -9 11 -5 6 4 14 7 18 7 19 0 14 11 -6 11 -12 0
-23 -6 -23 -13z"/>
<path d="M1447 928 c7 -8 9 -18 5 -23 -4 -4 4 -2 18 5 30 15 41 25 20 18 -8
-3 -24 -1 -35 5 -17 9 -18 8 -8 -5z"/>
<path d="M986 918 c3 -5 10 -6 15 -3 13 9 11 12 -6 12 -8 0 -12 -4 -9 -9z"/>
<path d="M1556 913 c-6 -14 -5 -15 5 -6 7 7 10 15 7 18 -3 3 -9 -2 -12 -12z"/>
<path d="M1506 878 c3 -5 10 -6 15 -3 13 9 11 12 -6 12 -8 0 -12 -4 -9 -9z"/>
<path d="M998 873 c6 -2 10 -9 7 -14 -4 -5 1 -6 10 -3 11 4 14 2 9 -9 -3 -8
-1 -17 4 -21 5 -3 8 4 7 15 -1 21 -21 39 -40 38 -5 0 -4 -3 3 -6z"/>
<path d="M995 829 c-4 -6 -5 -12 -2 -15 2 -3 7 2 10 11 7 17 1 20 -8 4z"/>
<path d="M960 820 c-9 -6 -10 -10 -3 -10 6 0 15 5 18 10 8 12 4 12 -15 0z"/>
<path d="M1495 820 c3 -5 8 -10 11 -10 2 0 4 5 4 10 0 6 -5 10 -11 10 -5 0 -7
-4 -4 -10z"/>
<path d="M1526 822 c-3 -5 1 -9 9 -9 8 0 12 4 9 9 -3 4 -7 8 -9 8 -2 0 -6 -4
-9 -8z"/>
<path d="M915 800 c3 -5 8 -10 11 -10 2 0 4 5 4 10 0 6 -5 10 -11 10 -5 0 -7
-4 -4 -10z"/>
<path d="M1036 782 c-3 -6 -16 -8 -29 -6 -21 4 -21 4 2 -6 20 -9 22 -12 10
-27 -11 -13 -11 -15 -1 -9 9 5 13 3 11 -5 -1 -8 -1 -21 0 -29 1 -13 3 -13 10
-1 5 8 6 22 1 30 -13 25 -13 33 1 42 8 4 11 11 7 14 -3 4 -9 2 -12 -3z"/>
<path d="M1495 759 c-4 -6 -5 -12 -2 -15 2 -3 7 2 10 11 7 17 1 20 -8 4z"/>
<path d="M1460 740 c-8 -5 -11 -10 -6 -10 5 0 3 -6 -3 -14 -8 -9 -8 -16 -2
-20 5 -4 12 -2 16 4 3 5 4 10 0 10 -3 0 -1 9 5 20 12 23 11 24 -10 10z"/>
<path d="M1555 741 c-3 -5 -2 -12 3 -15 5 -3 9 1 9 9 0 17 -3 19 -12 6z"/>
<path d="M993 715 c0 -8 4 -12 9 -9 5 3 6 10 3 15 -9 13 -12 11 -12 -6z"/>
<path d="M1484 719 c-3 -6 -2 -15 3 -20 5 -5 9 -1 9 11 0 23 -2 24 -12 9z"/>
<path d="M1513 715 c0 -8 4 -12 9 -9 4 3 8 9 8 15 0 5 -4 9 -8 9 -5 0 -9 -7
-9 -15z"/>
<path d="M1011 692 c-1 -7 -5 -11 -9 -8 -5 3 -9 -1 -9 -9 0 -8 4 -12 9 -9 5 3
15 1 23 -6 8 -7 15 -7 19 -1 4 5 2 12 -4 16 -5 3 -10 3 -11 -2 0 -4 -4 1 -9
12 -5 11 -9 14 -9 7z"/>
<path d="M1455 676 c-17 -12 -17 -13 3 -11 26 2 37 11 24 19 -5 3 -17 -1 -27
-8z"/>
<path d="M1496 653 c-6 -14 -5 -15 5 -6 7 7 10 15 7 18 -3 3 -9 -2 -12 -12z"/>
<path d="M1021 631 c-10 -6 -9 -10 3 -14 8 -3 18 -2 21 3 8 13 -9 20 -24 11z"/>
<path d="M1470 621 c0 -6 4 -12 8 -15 5 -3 9 1 9 9 0 8 -4 15 -9 15 -4 0 -8
-4 -8 -9z"/>
<path d="M1506 618 c3 -5 10 -6 15 -3 13 9 11 12 -6 12 -8 0 -12 -4 -9 -9z"/>
<path d="M1453 588 c-2 -16 1 -18 10 -9 7 7 8 14 1 21 -6 6 -10 2 -11 -12z"/>
<path d="M1510 580 c0 -5 5 -10 11 -10 5 0 7 5 4 10 -3 6 -8 10 -11 10 -2 0
-4 -4 -4 -10z"/>
<path d="M1183 567 c-9 -15 6 -20 21 -8 12 10 17 8 26 -8 6 -12 15 -21 21 -21
6 0 3 7 -5 16 -9 8 -16 19 -16 24 0 11 -40 9 -47 -3z"/>
<path d="M900 566 c0 -2 8 -10 18 -17 15 -13 16 -12 3 4 -13 16 -21 21 -21 13z"/>
<path d="M996 555 c-3 -8 -1 -15 4 -15 6 0 10 7 10 15 0 8 -2 15 -4 15 -2 0
-6 -7 -10 -15z"/>
<path d="M1270 549 c0 -5 5 -7 10 -4 6 3 10 8 10 11 0 2 -4 4 -10 4 -5 0 -10
-5 -10 -11z"/>
<path d="M1197 539 c-22 -13 -12 -32 14 -24 15 5 18 3 13 -12 -5 -15 -4 -16 5
-3 8 11 7 18 -4 26 -8 6 -12 14 -8 17 9 10 1 8 -20 -4z"/>
<path d="M1020 530 c-8 -5 -11 -13 -6 -17 5 -4 11 -2 13 5 3 6 10 9 15 6 7 -4
8 -2 4 4 -9 14 -7 14 -26 2z"/>
<path d="M1474 526 c1 -8 5 -18 8 -22 4 -3 5 1 4 10 -1 8 -5 18 -8 22 -4 3 -5
-1 -4 -10z"/>
<path d="M1035 500 c-4 -6 -11 -8 -16 -5 -5 3 -6 -1 -3 -9 3 -9 11 -16 17 -16
6 0 7 3 4 7 -4 3 -2 12 4 20 6 7 9 13 6 13 -3 0 -9 -5 -12 -10z"/>
<path d="M970 459 c0 -5 5 -7 10 -4 6 3 10 8 10 11 0 2 -4 4 -10 4 -5 0 -10
-5 -10 -11z"/>
<path d="M1445 420 c-3 -5 -2 -10 4 -10 5 0 13 5 16 10 3 6 2 10 -4 10 -5 0
-13 -4 -16 -10z"/>
<path d="M1004 399 c-4 -7 -3 -9 4 -5 5 3 13 0 15 -6 4 -9 6 -10 6 -1 1 17
-16 25 -25 12z"/>
<path d="M1460 400 c-8 -5 -10 -10 -5 -10 6 0 17 5 25 10 8 5 11 10 5 10 -5 0
-17 -5 -25 -10z"/>
<path d="M1214 378 c-3 -5 0 -7 8 -6 7 2 12 -2 11 -9 -3 -12 22 -12 34 1 4 4
1 6 -7 4 -8 -1 -14 2 -13 8 2 13 -25 15 -33 2z"/>
<path d="M1440 370 c6 -11 13 -20 16 -20 2 0 0 9 -6 20 -6 11 -13 20 -16 20
-2 0 0 -9 6 -20z"/>
<path d="M1056 307 c3 -10 9 -15 12 -12 3 3 0 11 -7 18 -10 9 -11 8 -5 -6z"/>
<path d="M1269 283 c-13 -16 -12 -17 4 -4 16 13 21 21 13 21 -2 0 -10 -8 -17
-17z"/>
<path d="M1107 279 c7 -7 15 -10 18 -7 3 3 -2 9 -12 12 -14 6 -15 5 -6 -5z"/>
</g>
</svg>
